<svg width="159" height="37" viewBox="0 0 159 37" fill="none" xmlns="http://www.w3.org/2000/svg">
<path d="M67.7461 30.7583H72.0615L63.2566 6.30724H58.4539L49.6143 30.7583H53.9645L55.6698 25.8331H66.0408L67.7461 30.7583ZM56.9923 22.0607L60.8553 11.0228L64.7183 22.0607H56.9923Z" fill="#010446"/>
<path d="M82.209 31.2124C83.8795 31.2124 85.4456 30.8281 86.8376 29.9898C88.2297 29.1864 89.2738 28.0687 90.0394 26.6715L86.8028 24.8202C86.3852 25.6585 85.7588 26.2872 84.9235 26.7763C84.0883 27.2653 83.1834 27.5098 82.1742 27.5098C80.6429 27.5098 79.3552 26.9858 78.3112 25.9379C77.2671 24.89 76.7799 23.5976 76.7799 22.0258C76.7799 20.4888 77.2671 19.1615 78.3112 18.1136C79.3552 17.0657 80.6429 16.5417 82.1742 16.5417C83.2182 16.5417 84.1231 16.7863 84.9235 17.2753C85.724 17.7643 86.3156 18.393 86.7332 19.2314L89.9698 17.3451C89.2738 15.9829 88.2297 14.9 86.8376 14.0617C85.4456 13.2583 83.8795 12.8392 82.209 12.8392C79.564 12.8392 77.3715 13.7473 75.6314 15.4938C73.8913 17.2403 73.0213 19.4409 73.0213 22.0258C73.0213 24.6106 73.8913 26.8112 75.6314 28.5577C77.3715 30.3391 79.564 31.2124 82.209 31.2124Z" fill="#010446"/>
<path d="M106.266 13.2933V15.7733C104.839 13.8172 102.82 12.8392 100.175 12.8392C97.7741 12.8392 95.7208 13.7473 94.0503 15.4938C92.345 17.2753 91.5098 19.4409 91.5098 22.0258C91.5098 24.6106 92.345 26.7763 94.0503 28.5577C95.7208 30.3391 97.7741 31.2124 100.175 31.2124C102.82 31.2124 104.839 30.2343 106.266 28.2433V30.7583H110.024V13.2933H106.266ZM100.767 27.6146C99.1662 27.6146 97.8785 27.0906 96.8345 26.0427C95.7904 24.9948 95.2684 23.6326 95.2684 22.0258C95.2684 20.419 95.7904 19.0916 96.8345 18.0437C97.8785 16.9958 99.1662 16.437 100.767 16.437C102.333 16.437 103.656 16.9958 104.7 18.0437C105.744 19.0916 106.266 20.419 106.266 22.0258C106.266 23.6326 105.744 24.9948 104.7 26.0427C103.656 27.0906 102.333 27.6146 100.767 27.6146Z" fill="#010446"/>
<path d="M122.619 31.2124C124.289 31.2124 125.855 30.8281 127.247 29.9898C128.639 29.1864 129.683 28.0687 130.449 26.6715L127.212 24.8202C126.795 25.6585 126.168 26.2872 125.333 26.7763C124.498 27.2653 123.593 27.5098 122.584 27.5098C121.053 27.5098 119.765 26.9858 118.721 25.9379C117.677 24.89 117.19 23.5976 117.19 22.0258C117.19 20.4888 117.677 19.1615 118.721 18.1136C119.765 17.0657 121.053 16.5417 122.584 16.5417C123.628 16.5417 124.533 16.7863 125.333 17.2753C126.134 17.7643 126.725 18.393 127.143 19.2314L130.379 17.3451C129.683 15.9829 128.639 14.9 127.247 14.0617C125.855 13.2583 124.289 12.8392 122.619 12.8392C119.974 12.8392 117.781 13.7473 116.041 15.4938C114.301 17.2403 113.431 19.4409 113.431 22.0258C113.431 24.6106 114.301 26.8112 116.041 28.5577C117.781 30.3391 119.974 31.2124 122.619 31.2124Z" fill="#010446"/>
<path d="M135.045 10.6735C135.672 10.6735 136.228 10.4639 136.716 9.9749C137.203 9.48588 137.446 8.927 137.446 8.26332C137.446 7.63458 137.203 7.0757 136.75 6.58668C136.263 6.09766 135.706 5.85315 135.045 5.85315C134.349 5.85315 133.792 6.09766 133.34 6.58668C132.853 7.0757 132.644 7.63458 132.644 8.26332C132.644 8.927 132.853 9.48588 133.34 9.9749C133.827 10.4639 134.384 10.6735 135.045 10.6735ZM133.166 30.7583H136.924V13.2933H133.166V30.7583Z" fill="#010446"/>
<path d="M149.502 31.2124C152.077 31.2124 154.235 30.3391 156.01 28.5577C157.785 26.8112 158.689 24.6106 158.689 22.0258C158.689 19.4409 157.785 17.2753 156.01 15.4938C154.235 13.7473 152.077 12.8392 149.502 12.8392C146.926 12.8392 144.769 13.7473 142.994 15.4938C141.184 17.2753 140.314 19.4409 140.314 22.0258C140.314 24.6106 141.184 26.8112 142.994 28.5577C144.769 30.3391 146.926 31.2124 149.502 31.2124ZM149.502 27.5447C147.97 27.5447 146.683 27.0208 145.639 25.9729C144.595 24.925 144.073 23.6326 144.073 22.0258C144.073 20.4539 144.595 19.1266 145.639 18.0787C146.683 17.0308 147.97 16.5068 149.502 16.5068C151.033 16.5068 152.321 17.0308 153.365 18.0787C154.409 19.1266 154.931 20.4539 154.931 22.0258C154.931 23.6326 154.409 24.925 153.365 25.9729C152.321 27.0208 151.033 27.5447 149.502 27.5447Z" fill="#010446"/>
<path d="M3 17.4647V33.7176H4.86341C8.35952 33.8242 16.2036 33.9734 19.611 33.7176C23.8702 33.3979 25.2927 32.212 26.3725 31.4262L26.4015 31.4051C27.6888 30.4684 31.0803 28.0005 32.4419 24.4455C33.4215 21.8876 33.6309 19.4009 33.6132 18.4772V10.5906V3.02368C33.6132 3.02368 32.1934 3.00592 31.4836 3.02368H30.2058C25.7691 2.97039 18.7444 3.02369 16.2036 3.02368C15.4932 3.02368 13.1157 3.60985 11.5717 4.35588C10.0277 5.10192 7.73839 6.80713 5.50229 9.6314C3.71342 11.8908 3.08873 15.795 3 17.4647Z" fill="#010446" stroke="#010446" stroke-width="5"/>
<path d="M13.1899 12.9357C9.89132 14.0943 6.54507 17.2697 5.33252 18.8724C6.49657 21.0803 11.0073 23.9581 14.8874 24.7431C18.7676 25.5281 21.2897 25.2337 25.0729 23.5826C27.484 22.5303 30.0524 20.0827 30.9901 18.8724C30.0524 17.7276 27.401 15.0553 24.2968 13.5245C20.4167 11.611 16.7305 11.6921 13.1899 12.9357Z" fill="white" stroke="#010446" stroke-width="2"/>
<circle cx="18.1613" cy="18.7444" r="4.95658" fill="#010446"/>
</svg>
