<svg width="262" height="151" viewBox="0 0 262 151" fill="none" xmlns="http://www.w3.org/2000/svg">
<path d="M185.092 31.5352C193.392 32.1833 209.019 47.4411 209.661 55.6418C209.843 57.7119 209.57 59.7968 208.86 61.7498C208.15 63.7029 207.02 65.4767 205.551 66.9465C203.114 69.5031 200.67 72.0525 198.219 74.5946C189.73 82.6501 181.361 90.827 173.448 99.4576C164.794 107.433 156.516 115.787 148.476 124.378C146.433 125.85 144.641 127.641 143.169 129.684C142.628 129.993 142.087 130.302 141.546 130.612C138.989 128.383 136.729 128.354 134.341 131.081C133.007 132.684 131.184 133.806 129.151 134.274C124.284 135.243 122.877 138.577 122.961 143.009C118.054 143.372 114.626 140.656 111.434 137.464C96.6186 122.652 82.0304 107.602 66.8886 93.1319C60.4657 86.9937 58.122 80.5343 60.8918 72.1812L60.9375 72.1307L61.582 71.4853L61.953 70.4301C63.0548 69.867 63.9482 68.9672 64.5034 67.8614C65.689 66.8054 66.9021 65.7777 68.0562 64.6875C72.1497 60.8208 75.5447 56.0812 81.2254 54.2096C87.9512 53.2264 93.0757 55.8336 97.6712 60.6962C105.153 68.6124 113.028 76.1563 120.729 83.8658C121.996 85.1341 123.057 86.6052 124.977 84.5202C128.355 80.852 131.898 77.3363 135.372 73.7571C135.606 73.7584 135.84 73.7597 136.074 73.761C139.947 73.3346 142.602 74.7067 144.843 78.1516C148.107 83.167 153.446 83.2153 158.052 79.1616C163.387 74.4666 165.775 68.1619 167.943 61.7504C169.671 56.6436 171.572 51.3364 176.364 48.7159C183.508 44.8094 185.762 39.0773 185.092 31.5352ZM170.716 86.8714C170.608 86.3372 170.368 85.8384 170.019 85.4198C169.67 85.0012 169.222 84.676 168.716 84.4734C167.235 83.9138 166.158 84.572 165.161 85.5699C160.568 90.1679 155.969 94.7601 151.365 99.3466C149.761 100.935 148.46 102.632 150.58 104.592C152.475 106.343 154.059 105.092 155.516 103.621C159.986 99.1099 164.489 94.6316 168.972 90.134C169.48 89.747 169.898 89.2554 170.199 88.6925C170.5 88.1296 170.676 87.5085 170.716 86.8714ZM83.5616 91.395C83.4437 89.48 78.325 84.4576 76.5593 84.3961C76.19 84.3536 75.816 84.3881 75.4608 84.4975C75.1056 84.6068 74.7769 84.7887 74.4955 85.0315C74.2142 85.2743 73.9862 85.5728 73.826 85.9082C73.6658 86.2436 73.577 86.6085 73.565 86.98C73.3132 88.7927 78.5399 94.1961 80.5332 94.2568C82.5838 94.3192 83.356 93.049 83.5616 91.395ZM178.999 84.2591C183.398 82.0786 189.935 75.1834 190.326 73.1949C186.994 76.449 183.192 80.1634 178.999 84.2591H178.999ZM107.327 77.789C106.731 76.1998 105.789 74.7631 104.569 73.5832C103.349 72.4033 101.881 71.5099 100.273 70.9677C101.746 74.0021 104.245 76.4182 107.327 77.789H107.327ZM89.6856 98.3666C91.0877 100.965 92.8348 103.214 95.8061 104.225C94.3655 101.666 92.6214 99.4134 89.6856 98.3666ZM186.297 71.2474C189.922 70.0072 191.632 68.195 193.12 64.6881C189.889 66.3805 188.242 68.2576 186.297 71.2474ZM184.117 54.6341C186.934 54.4628 188.097 53.1322 188.78 51.234C186.927 51.7474 185.053 52.2351 184.117 54.6341V54.6341ZM186.962 61.8121C186.581 59.868 186.002 58.0398 183.551 56.9094C183.634 59.5997 185.211 60.7749 186.962 61.8121L186.962 61.8121ZM84.9639 85.0716C85.7565 86.7631 86.5956 88.4509 89.2349 88.9821C88.3546 86.5613 87.0994 85.3755 84.9639 85.0716ZM94.4063 93.7982L93.4323 93.4287C93.3592 93.6449 93.1657 93.9897 93.2345 94.0541C93.5129 94.2727 93.8146 94.4598 94.1341 94.612L94.4063 93.7982ZM79.0651 78.6417C78.8498 78.5297 78.6252 78.4366 78.3938 78.3634C78.338 78.3497 78.1438 78.6228 78.1591 78.6409C78.3105 78.806 78.4725 78.961 78.6442 79.105L79.0651 78.6417ZM92.5028 92.1034C92.4309 92.018 92.3643 91.8711 92.2856 91.8643C92.2057 91.8574 92.1139 91.9888 92.0273 92.0597C92.0996 92.1449 92.1659 92.2902 92.246 92.2983C92.3243 92.3063 92.4167 92.1741 92.5029 92.1034H92.5028ZM81.8555 81.4563C81.7831 81.3702 81.7161 81.222 81.637 81.2153C81.5566 81.2085 81.4643 81.3411 81.3773 81.4126C81.45 81.4986 81.5166 81.6452 81.5972 81.6532C81.6759 81.6612 81.7688 81.5277 81.8555 81.4563Z" fill="#86BF00"/>
<path d="M64.5037 67.8609C63.9484 68.9666 63.055 69.8665 61.9532 70.4296C57.6446 68.2442 55.9367 63.1755 50.9157 59.8616C52.861 65.9827 57.6153 68.283 60.0943 72.3084C59.7682 72.7926 59.413 73.2565 59.0307 73.6978C49.0859 83.9442 49.1255 90.3923 59.0909 100.382C74.7287 116.057 90.3453 131.753 105.941 147.471C99.4356 147.054 93.0374 149.026 86.5208 148.339C86.05 147.596 85.4919 146.912 84.8583 146.303C74.1385 138.191 65.3459 127.917 54.7618 119.632C47.7052 114.109 41.0551 108.066 34.223 102.256C32.302 96.5756 33.6016 90.6034 32.6037 84.7854C31.7513 79.8148 30.8853 75.1138 28.3018 70.6298C22.8905 61.238 18.7053 51.2214 19.2917 40.1681C19.648 33.454 20.2284 26.3563 26.072 21.4131C30.1132 26.3161 34.9926 30.5602 37.8252 36.4081C35.8557 36.5266 34.058 37.12 33.5338 39.2133C33.0692 41.0684 34.5962 41.9601 35.922 42.8209C39.0869 47.0323 43.8741 46.6806 48.3394 47.2344C48.1236 49.5138 46.356 48.8504 44.9926 49.0376C41.7497 49.4829 38.7958 47.6865 34.6673 47.6884C38.9553 50.4971 42.8566 50.9199 46.9408 50.7785C48.6439 50.7195 50.3846 50.4288 51.7559 52.1689C55.9267 57.4614 60.2437 62.6387 64.5037 67.8609ZM68.8504 126.305C69.2199 125.951 69.5894 125.597 69.9589 125.243C75.8379 131.085 81.7168 136.927 87.5958 142.768L86.4451 143.901C80.5802 138.036 74.7153 132.17 68.8504 126.305ZM67.6303 122.502C67.4724 122.102 67.2622 121.726 67.005 121.381C63.9159 118.251 60.8085 115.138 57.6828 112.043C57.1848 111.552 56.4826 110.975 55.8398 111.823C55.6291 112.13 55.5419 112.505 55.5956 112.874C55.6493 113.243 55.8399 113.578 56.1295 113.813C59.1082 116.844 62.0907 119.874 65.1471 122.827C65.8985 123.553 66.9228 123.933 67.6303 122.502ZM32.0431 45.2161L31.3258 44.9023C31.2234 45.1418 30.9871 45.4358 31.0561 45.6059C31.1263 45.779 31.4973 45.83 31.7365 45.9345C31.839 45.6958 31.9415 45.4571 32.0431 45.2161Z" fill="#D7EBFF"/>
<path d="M135.372 73.7568C131.898 77.3363 128.354 80.852 124.976 84.5202C123.056 86.6052 121.995 85.1341 120.729 83.8657C113.028 76.1563 105.152 68.6124 97.6708 60.6961C93.0753 55.8336 87.9508 53.2264 81.2247 54.2096C79.4529 51.003 77.6814 47.7962 75.9099 44.5894C81.8814 44.8136 87.8289 44.4768 93.84 45.2313C99.6842 45.9648 105.675 47.529 111.637 45.7546C113.046 45.3352 115.35 45.897 115.444 43.649C115.516 41.9226 113.49 41.754 112.284 41.0326C110.854 40.7296 109.399 40.0811 107.999 40.1858C102.947 40.5639 98.7851 38.7049 95.1203 35.4903C91.6021 32.4042 87.4105 30.7542 83.0443 29.3289C78.0291 27.6918 72.9519 26.2348 68.4692 23.2045C66.2051 21.7625 63.5041 21.1673 60.8437 21.5241L49.2817 2.9723C53.0427 1.96285 56.7929 0.888637 60.7523 1.07123C62.6971 7.6665 66.5344 13.122 70.2044 18.6783L71.3901 17.9986L62.5417 1.09092C76.9597 0.132953 89.3982 4.95273 100.691 13.6753C105.974 17.7053 111.63 21.2222 117.581 24.1781C117.63 25.343 117.802 26.4995 118.094 27.6282C123.819 43.0173 129.578 58.3935 135.372 73.7568ZM114.948 60.1994C117.574 59.8674 119.198 58.4398 119.077 55.8396C119.089 55.2756 118.98 54.7156 118.758 54.197C118.536 53.6785 118.206 53.2134 117.789 52.8329C117.373 52.4524 116.88 52.1653 116.343 51.9909C115.807 51.8165 115.239 51.7588 114.679 51.8216C114.152 51.814 113.629 51.9159 113.143 52.1206C112.658 52.3254 112.22 52.6286 111.857 53.0112C111.495 53.3937 111.216 53.8473 111.037 54.3432C110.859 54.8391 110.785 55.3666 110.821 55.8924C110.794 58.4663 112.461 59.8647 114.948 60.1994ZM100.051 35.4248C99.2624 30.36 92.6623 26.5759 84.5835 26.7966C90.3864 30.1402 96.7509 30.1773 100.051 35.4248Z" fill="#D7EBFF"/>
<path d="M219.704 146.583C214.639 146.548 209.574 146.514 204.509 146.48C204.853 142.374 205.196 138.267 205.539 134.159C208.331 133.275 211.168 132.508 213.905 131.476C215.547 130.924 216.952 129.83 217.889 128.374C218.826 126.917 219.239 125.185 219.06 123.463C216.122 128.811 212.027 131.499 206.394 131.507C206.663 130.033 206.932 128.56 207.2 127.086C208.883 126.548 210.511 125.853 212.063 125.009C214.503 123.394 215.684 121.363 212.624 119.086C211.69 117.817 209.542 118.267 208.961 116.499C209.175 110.458 210.086 104.462 211.676 98.6309C219.344 101.748 227.759 99.4481 235.552 102.003C240.559 103.644 240.798 103.551 239.012 108.626C237.433 113.113 235.706 117.549 234.527 122.198C237.842 117.856 238.954 112.55 241.016 107.674C242.106 105.098 243.198 103.563 245.457 106.677C245.239 107.377 245.064 108.094 244.795 108.774C241.165 117.962 236.033 126.492 232.918 135.907C226.454 136.917 221.217 139.446 219.704 146.583Z" fill="#D7EBFF"/>
<path d="M105.94 147.471C90.3258 131.773 74.7093 116.076 59.0907 100.382C49.1253 90.3924 49.0857 83.9443 59.0305 73.6979C59.4127 73.2569 59.7677 72.7931 60.0936 72.309C60.362 72.283 60.6284 72.2403 60.8914 72.1812C58.1217 80.5343 60.4653 86.9937 66.8883 93.1319C82.03 107.602 96.6183 122.652 111.433 137.464C114.626 140.656 118.054 143.372 122.96 143.009C125.431 143.635 127.632 142.178 130.011 142.095C129.385 142.978 128.759 143.861 128.134 144.743C119.125 152.215 114.699 152.759 105.94 147.471ZM102.004 133.866C103.369 137.253 105.57 139.839 109.146 141.006C107.763 137.666 105.121 135.553 102.004 133.866V133.866Z" fill="#010446"/>
<path d="M185.092 31.5352C185.762 39.0773 183.508 44.8093 176.364 48.7159C171.572 51.3364 169.671 56.6436 167.943 61.7504C165.775 68.1618 163.387 74.4666 158.052 79.1616C153.446 83.2153 148.107 83.167 144.843 78.1516C142.602 74.7067 139.947 73.3346 136.074 73.7609C137.469 72.1516 138.864 70.5424 140.259 68.9332C143.37 65.7999 146.481 62.6666 149.592 59.5333C152.623 57.1128 155.361 54.3461 157.749 51.2897C157.985 51.0801 158.222 50.8708 158.46 50.662L159.236 49.9296L159.355 49.7911C164.679 44.5372 170.002 39.2833 175.325 34.0294C178.399 32.4874 181.397 30.646 185.092 31.5352ZM152.985 67.2274C156.545 64.4769 160.085 61.6224 162.35 57.5157C159.229 60.7529 156.107 63.9902 152.985 67.2274Z" fill="#A8D04B"/>
<path d="M49.2817 2.97241L60.8434 21.5238C57.4405 23.5792 54.1123 25.8391 52.0873 29.3113C48.8296 34.8974 45.1004 39.0938 37.8249 36.4083C34.9923 30.5604 30.1129 26.3163 26.0717 21.4133C26.0618 20.6727 26.2222 19.9398 26.5403 19.271C26.8585 18.6021 27.326 18.0153 27.9068 17.5557C34.4085 11.7821 40.43 5.30292 49.2817 2.97241ZM40.3752 26.8659C40.1945 25.9335 39.7852 25.0605 39.184 24.3253C38.5828 23.59 37.8086 23.0155 36.9306 22.6533C36.9602 25.1167 38.0164 26.078 40.3752 26.8659ZM39.7305 17.1419C40.0755 19.3534 41.1643 20.2792 43.0646 21.1767C42.9021 18.7711 41.9526 17.7243 39.7305 17.1419ZM32.6129 18.1914C33.0167 20.0839 33.7563 21.0544 35.7546 21.2352C35.3956 19.3147 34.6387 18.3625 32.6129 18.1914ZM39.396 15.9935C38.9222 14.0575 38.2251 13.0212 36.1183 12.9026C36.5982 14.779 37.3199 15.7886 39.396 15.9935ZM41.9719 28.5567L41.7579 28.2478L41.5046 28.8064C41.6097 28.8353 41.7568 28.9204 41.8103 28.8804C41.8966 28.8158 41.9212 28.6689 41.9719 28.5567Z" fill="#FFF4CA"/>
<path d="M173.448 99.4577C181.361 90.8269 189.729 82.65 198.218 74.5945C198.42 79.7794 201.508 84.0312 202.827 88.8552C200.781 93.4517 202.862 98.5682 201.017 103.189C198.237 103.288 195.378 102.654 192.647 103.995C195.315 105.55 198.876 103.874 201.039 106.669L200.976 107.602C197.519 106.359 194.182 105.626 190.361 106.727C178.817 110.054 178.776 109.91 173.448 99.4577Z" fill="#D7EBFF"/>
<path d="M149.591 59.5333C146.48 62.6666 143.369 65.7999 140.259 68.9332C140.094 68.7782 139.927 68.6252 139.758 68.4742C136.039 57.1679 132.323 45.8606 128.61 34.5524C127.973 32.6062 127.076 30.6985 127.387 28.553C132.976 28.929 138.535 29.8416 144.166 29.5118C144.377 31.0946 144.518 32.6908 144.811 34.2588C146.383 42.6876 147.994 51.1092 149.591 59.5333Z" fill="#FFF4CA"/>
<path d="M198.365 145.708C188.023 145.116 177.682 144.524 167.34 143.932C167.464 138.435 164.891 133.395 164.638 127.963C176.201 127.332 187.644 131.311 199.253 128.86C199.257 130.043 199.26 131.225 199.263 132.408C194.974 134.626 189.936 132.027 185.669 135.075H199.212C198.486 138.57 198.201 142.142 198.365 145.708Z" fill="#D7EBFF"/>
<path d="M34.2231 102.256C41.0551 108.066 47.7052 114.109 54.7618 119.632C65.3459 127.917 74.1385 138.191 84.8583 146.303C85.4919 146.913 86.05 147.596 86.5208 148.339C83.5806 148.31 80.6407 148.281 77.701 148.253C76.9762 147.329 76.1774 146.466 75.3125 145.671C62.501 135.611 49.6716 125.573 36.8243 115.559C34.6744 111.375 34.1032 106.883 34.2231 102.256Z" fill="#FFF4CA"/>
<path d="M1.33887 72.018C1.43499 68.9704 0.824623 65.8101 3.62961 63.3952C8.17288 59.4838 12.4019 59.2762 17.5961 64.1383C23.8383 69.9813 28.7462 76.7529 28.0563 86.1175C27.8521 88.8896 27.2493 91.3209 25.322 93.3504C22.6511 90.9782 19.9802 88.606 17.3093 86.2336C17.3505 81.9611 14.5319 81.6096 11.2872 81.8426C11.2479 81.2716 11.0537 80.7221 10.7253 80.2534C10.3969 79.7846 9.94681 79.4144 9.42357 79.1824C9.39753 78.8908 9.38316 78.5987 9.38047 78.3062C12.8206 74.5839 13.0147 71.6048 9.75817 67.1901C11.038 70.9763 9.95647 74.5943 9.31844 78.2444C8.78155 78.2684 8.24433 78.292 7.7068 78.3152C6.68731 75.1008 3.38181 74.1976 1.33887 72.018Z" fill="#D7EBFF"/>
<path d="M251.648 111.052C257.584 114.808 260.991 120.16 261.336 127.192C261.66 133.811 257.646 137.715 252.229 140.482C249.903 141.67 247.704 143.323 244.861 143.103C243.503 140.584 241.363 138.574 238.763 137.378C242.068 128.118 246.786 119.55 251.648 111.052Z" fill="#D7EBFF"/>
<path d="M36.8242 115.558C49.6588 125.589 62.4882 135.627 75.3124 145.671C76.1773 146.466 76.9761 147.329 77.7009 148.253C64.8582 146.357 53.2158 141.762 44.2583 132.074C40.0615 127.535 36.9842 122.104 36.8242 115.558Z" fill="#D7EBFF"/>
<path d="M213.555 82.6409C222.242 82.7411 229.817 86.3499 237.225 90.3298C238.834 91.1944 240.595 92.6652 239.897 94.9439C239.179 97.2899 236.972 98.0141 234.908 97.6709C229.125 96.6634 223.28 96.0504 217.413 95.8364C215.677 95.7857 213.528 95.3848 212.509 93.3582C212.858 89.7858 213.207 86.2134 213.555 82.6409Z" fill="#D7EBFF"/>
<path d="M149.591 59.5331C147.994 51.109 146.383 42.6874 144.811 34.2587C144.518 32.6908 144.377 31.0945 144.166 29.5117C147.968 28.685 151.865 28.3741 155.751 28.5874C155.447 36.2403 157.729 43.6657 157.75 51.29C155.36 54.3459 152.622 57.1124 149.591 59.5331Z" fill="#D7EBFF"/>
<path d="M140.259 68.9332C138.864 70.5425 137.469 72.1517 136.074 73.761C135.84 73.7596 135.606 73.7584 135.372 73.7571C129.603 58.3845 123.844 43.0082 118.095 27.6283C117.802 26.4996 117.63 25.3431 117.581 24.1782C119.842 25.617 122.743 25.7315 124.769 27.6555C128.172 40.998 133.245 53.8061 137.342 66.9266C137.506 67.4226 137.836 67.8472 138.276 68.129C138.716 68.4108 139.239 68.5327 139.758 68.4743C139.927 68.6252 140.094 68.7782 140.259 68.9332Z" fill="#FFF4CA"/>
<path d="M141.546 130.612C142.087 130.302 142.628 129.993 143.169 129.684C145.597 129.411 148.026 129.138 150.454 128.865C152.538 133.871 154.623 138.877 156.708 143.883C150.468 143.911 144.229 143.938 137.99 143.965C136.797 142.132 135.604 140.299 134.411 138.466C136.789 135.848 139.168 133.23 141.546 130.612Z" fill="#D7EBFF"/>
<path d="M17.3093 86.2336C19.9803 88.6059 22.6512 90.9782 25.322 93.3504C22.8522 96.639 20.3231 99.835 15.5811 99.5618C12.5575 95.9489 8.34469 93.7843 4.84613 90.7499C1.81426 85.7318 1.95014 85.0112 6.69769 80.9304L6.67845 80.9501C7.25875 80.9558 7.82801 80.7914 8.31599 80.4773C8.80397 80.1632 9.18933 79.7131 9.42451 79.1826C9.94755 79.4144 10.3973 79.7847 10.7253 80.2534C11.0532 80.7222 11.2469 81.2717 11.2854 81.8425C10.0894 83.8172 9.40782 85.8087 11.4436 87.6611C14.0644 90.0457 15.5015 87.3247 17.3093 86.2336Z" fill="#FFF4CA"/>
<path d="M175.325 34.0294C170.002 39.2833 164.678 44.5374 159.354 49.7917C159.559 42.6611 157.719 35.7088 157.501 28.6147C162.236 28.4137 166.909 29.7565 170.814 32.4408C172.128 33.4045 173.697 33.9573 175.325 34.0294Z" fill="#D7EBFF"/>
<path d="M251.648 111.052C246.786 119.55 242.068 128.118 238.765 137.378C236.817 136.887 234.868 136.397 232.918 135.907C236.033 126.492 241.165 117.962 244.795 108.774C245.064 108.094 245.239 107.377 245.458 106.677C248.239 107.12 250.146 108.8 251.648 111.052ZM238.829 127.792L240.005 128.394C242.697 123.483 246.149 118.961 247.756 113.493L246.397 112.797C243.874 117.796 241.351 122.794 238.829 127.792Z" fill="#FFF4CA"/>
<path d="M201.017 103.189C202.863 98.5682 200.782 93.4517 202.827 88.8552C205.543 92.3252 208.126 95.9159 211.676 98.6315C210.086 104.462 209.175 110.458 208.962 116.498C204.81 114.936 203.732 110.951 201.909 107.554C204.842 107.395 204.95 111.189 207.991 111.874C207.224 107.308 203.264 105.912 201.017 103.189Z" fill="#FFF4CA"/>
<path d="M164.638 127.963C164.891 133.395 167.463 138.435 167.34 143.931C165.278 143.918 163.216 143.905 161.153 143.892C160.681 138.288 156.703 133.693 156.581 127.988C159.267 127.98 161.953 127.971 164.638 127.963Z" fill="#FFF4CA"/>
<path d="M139.758 68.4743C139.239 68.5327 138.716 68.4108 138.276 68.129C137.836 67.8472 137.506 67.4226 137.342 66.9266C133.245 53.8061 128.172 40.998 124.769 27.6555C125.359 27.6837 125.948 27.712 126.538 27.7405C126.828 28.0235 127.118 28.3068 127.409 28.5904L127.387 28.5533C127.076 30.6985 127.973 32.6062 128.61 34.5524C132.311 45.8645 136.027 57.1718 139.758 68.4743Z" fill="#FFF4CA"/>
<path d="M198.365 145.708C198.201 142.142 198.486 138.57 199.213 135.075C201.117 133.36 203.437 134.512 205.538 134.159C205.195 138.266 204.852 142.373 204.509 146.48C202.38 146.862 200.386 146.18 198.365 145.708Z" fill="#FFF4CA"/>
<path d="M232.918 135.907C234.867 136.397 236.816 136.887 238.765 137.378C241.364 138.575 243.503 140.584 244.861 143.103C244.43 143.961 243.656 143.882 242.889 143.824C242.236 142.651 241.35 141.624 240.285 140.806C239.219 139.989 237.998 139.398 236.696 139.071C234.949 138.353 233.02 138.206 231.184 138.649C226.374 139.113 223.41 141.853 221.796 146.259C221.512 146.503 221.166 146.663 220.796 146.72C220.426 146.777 220.048 146.73 219.704 146.583C221.217 139.446 226.454 136.917 232.918 135.907Z" fill="#649CD3"/>
<path d="M213.555 82.6409C213.207 86.2134 212.858 89.7858 212.509 93.3582C209.212 92.2426 208.046 89.3456 207.402 86.453C206.613 82.9122 209.37 81.3251 213.555 82.6409Z" fill="#FFF4CA"/>
<path d="M27.8867 126.462C34.1069 132.54 40.327 138.618 46.5471 144.697L47.5794 143.665C41.4034 137.543 35.2273 131.421 29.0513 125.299C28.6631 125.687 28.2749 126.075 27.8867 126.462Z" fill="#D7EBFF"/>
<path d="M156.58 127.988C156.703 133.693 160.681 138.288 161.153 143.892C160.26 143.899 159.366 143.906 158.471 143.914C158.573 142.549 157.863 141.407 157.502 140.161C156.369 136.253 153.499 133.04 153.045 128.877C153.981 127.615 155.351 128.083 156.58 127.988Z" fill="#D7EBFF"/>
<path d="M231.184 138.649C233.02 138.206 234.949 138.354 236.695 139.073C236.336 141.523 234.811 143.475 233.877 145.679C232.108 145.993 230.422 146.851 228.55 146.484C228.603 143.596 230.025 141.167 231.184 138.649Z" fill="#FFF4CA"/>
<path d="M1.33901 72.0178C3.38195 74.1975 6.68745 75.1007 7.70547 78.3148C7.36217 79.193 7.01984 80.0714 6.67847 80.95L6.69773 80.9302C1.40116 81.6788 -0.522861 78.4789 1.33901 72.0178Z" fill="#FFF4CA"/>
<path d="M157.501 28.6145C157.719 35.7087 159.559 42.6609 159.354 49.7915L159.236 49.9285C158.978 50.1723 158.719 50.4168 158.46 50.6618C158.222 50.8709 157.985 51.0801 157.749 51.2895C157.729 43.6657 155.447 36.2403 155.751 28.5874L157.501 28.6145Z" fill="#FFF4CA"/>
<path d="M231.184 138.649C230.025 141.166 228.603 143.596 228.55 146.484C226.3 146.408 224.049 146.334 221.797 146.26C223.41 141.853 226.375 139.113 231.184 138.649Z" fill="#D7EBFF"/>
<path d="M62.5419 1.09098L71.3902 17.9987L70.2045 18.6783C66.5345 13.1221 62.6973 7.66656 60.7524 1.07129C61.3484 1.07781 61.9449 1.08437 62.5419 1.09098Z" fill="#FFF4CA"/>
<path d="M4.84619 90.75C8.3448 93.7844 12.5575 95.949 15.5812 99.5619C8.29938 99.6166 5.49627 97.3157 4.84619 90.75Z" fill="#D7EBFF"/>
<path d="M134.41 138.466C135.603 140.299 136.796 142.132 137.989 143.965C134.817 145.656 131.418 144.476 128.133 144.743C128.759 143.861 129.385 142.978 130.011 142.096L129.982 142.166C130.264 141.878 130.547 141.589 130.83 141.301C132.023 140.356 133.217 139.411 134.41 138.466Z" fill="#FFF4CA"/>
<path d="M153.044 128.877C153.499 133.04 156.368 136.253 157.502 140.161C157.863 141.407 158.573 142.549 158.471 143.914C157.883 143.904 157.295 143.894 156.707 143.884C154.623 138.877 152.538 133.87 150.454 128.864C151.317 128.868 152.181 128.873 153.044 128.877Z" fill="#FFF4CA"/>
<path d="M233.877 145.679C234.811 143.475 236.336 141.523 236.695 139.073C237.997 139.399 239.219 139.989 240.284 140.806C241.35 141.624 242.236 142.651 242.889 143.824C240.066 145.123 236.983 145.758 233.877 145.679Z" fill="#D7EBFF"/>
<path d="M25.3638 132.457L36.7117 143.894L37.7791 142.849C34.043 138.99 30.3068 135.132 26.5707 131.273L25.3638 132.457Z" fill="#D7EBFF"/>
<path d="M118.415 18.9352C118.319 19.7799 117.884 20.5207 117.369 20.199C115.272 18.8909 113.313 17.3477 112.432 14.9107C112.237 14.3704 112.864 13.5585 113.412 13.877C115.514 15.0693 117.246 16.8199 118.415 18.9352Z" fill="#D7EBFF"/>
<path d="M127.409 28.5903C127.119 28.3069 126.828 28.0236 126.538 27.7405C126.829 28.0241 127.119 28.3074 127.409 28.5903Z" fill="#FFF4CA"/>
<path d="M201.909 107.554C203.732 110.951 204.811 114.936 208.962 116.498C209.542 118.267 211.69 117.817 212.623 119.086C212.164 119.931 211.533 120.67 210.772 121.257C210.01 121.844 209.134 122.265 208.2 122.494C203.189 124.128 197.979 125.074 192.713 125.306C184.806 125.478 176.9 124.919 169.096 123.636C162.224 122.586 155.382 124.877 148.476 124.378C156.516 115.787 164.794 107.433 173.448 99.4575C178.776 109.91 178.818 110.054 190.361 106.727C194.182 105.626 197.519 106.359 200.977 107.602C201.294 107.591 201.611 107.58 201.927 107.57L201.909 107.554Z" fill="white"/>
<path d="M75.9099 44.5898C77.6814 47.7965 79.453 51.0031 81.2246 54.2097C75.5443 56.0813 72.1492 60.8209 68.0557 64.6875C66.9016 65.7777 65.6885 66.8055 64.5029 67.8615C60.2433 62.6389 55.9264 57.4616 51.7556 52.1691C50.3843 50.429 48.6435 50.7197 46.9405 50.7787C42.8563 50.9201 38.955 50.4973 34.667 47.6886C38.7954 47.6867 41.7494 49.4831 44.9923 49.0378C46.3556 48.8506 48.1232 49.5139 48.3397 47.2344C57.57 46.8405 66.773 45.9577 75.9099 44.5898Z" fill="#FFF4CA"/>
<path d="M148.476 124.378C155.382 124.877 162.224 122.586 169.095 123.636C176.9 124.919 184.806 125.478 192.713 125.306C197.979 125.074 203.189 124.128 208.2 122.494C209.134 122.265 210.01 121.844 210.771 121.257C211.533 120.67 212.164 119.931 212.623 119.086C215.683 121.363 214.503 123.394 212.063 125.009C210.511 125.853 208.883 126.548 207.2 127.086C204.552 127.678 201.903 128.269 199.253 128.86C187.644 131.311 176.201 127.332 164.638 127.963C161.952 127.971 159.267 127.98 156.581 127.988C155.351 128.083 153.981 127.615 153.045 128.877C152.181 128.873 151.317 128.869 150.454 128.864C148.025 129.138 145.597 129.411 143.168 129.684C144.641 127.641 146.433 125.85 148.476 124.378Z" fill="#FFF4CA"/>
<path d="M170.716 86.8715C170.676 87.5086 170.5 88.1296 170.199 88.6926C169.898 89.2555 169.479 89.7471 168.972 90.1341C164.488 94.6317 159.986 99.11 155.516 103.621C154.059 105.092 152.474 106.343 150.58 104.592C148.46 102.633 149.761 100.935 151.365 99.3466C155.982 94.7732 160.581 90.181 165.161 85.57C166.158 84.572 167.234 83.9138 168.716 84.4734C169.222 84.676 169.67 85.0012 170.019 85.4198C170.368 85.8385 170.608 86.3373 170.716 86.8715Z" fill="#ECF9CE"/>
<path d="M134.41 138.466C133.217 139.411 132.024 140.356 130.831 141.301L129.982 142.166L130.011 142.096C127.632 142.178 125.431 143.635 122.96 143.009C122.876 138.577 124.284 135.243 129.151 134.274C131.183 133.806 133.006 132.684 134.341 131.081C136.728 128.354 138.989 128.383 141.546 130.612L134.41 138.466Z" fill="#A8D04B"/>
<path d="M83.5616 91.395C83.356 93.049 82.5837 94.3191 80.5331 94.2567C78.5398 94.1961 73.3132 88.7927 73.5649 86.98C73.5769 86.6085 73.6658 86.2436 73.826 85.9082C73.9861 85.5728 74.2141 85.2743 74.4955 85.0315C74.7769 84.7886 75.1056 84.6068 75.4608 84.4974C75.816 84.3881 76.19 84.3536 76.5592 84.3961C78.3249 84.4575 83.4437 89.4799 83.5616 91.395Z" fill="#ECF9CE"/>
<path d="M178.999 84.259C183.192 80.1634 186.994 76.4489 190.326 73.1948C189.935 75.1833 183.398 82.0785 178.999 84.259Z" fill="#A8D04B"/>
<path d="M60.8914 72.1812C60.6284 72.2404 60.362 72.2831 60.0936 72.3091C57.6151 68.2832 52.8608 65.9829 50.9155 59.8618C55.9365 63.1757 57.6444 68.2444 61.953 70.4297C61.8291 70.7819 61.7057 71.1333 61.583 71.4841C61.3686 71.6989 61.1533 71.9144 60.9371 72.1307L60.8914 72.1812Z" fill="#FFF4CA"/>
<path d="M107.326 77.7891C104.244 76.4183 101.746 74.0022 100.273 70.9678C101.881 71.5099 103.349 72.4034 104.569 73.5833C105.789 74.7631 106.731 76.1999 107.326 77.7891Z" fill="#A8D04B"/>
<path d="M89.6855 98.3665C92.6214 99.4133 94.3655 101.665 95.8061 104.224C92.8348 103.214 91.0877 100.964 89.6855 98.3665Z" fill="#A8D04B"/>
<path d="M186.296 71.2472C188.242 68.2575 189.889 66.3803 193.12 64.688C191.632 68.1949 189.922 70.0071 186.296 71.2472Z" fill="#010446"/>
<path d="M184.116 54.6342C185.053 52.2352 186.927 51.7475 188.78 51.2341C188.096 53.1323 186.934 54.4629 184.116 54.6342Z" fill="#ECF9CE"/>
<path d="M186.962 61.8121C185.21 60.7749 183.633 59.5998 183.551 56.9094C186.002 58.0399 186.581 59.8681 186.962 61.8121Z" fill="#ECF9CE"/>
<path d="M84.9639 85.0715C87.0994 85.3754 88.3545 86.5612 89.2349 88.9821C86.5956 88.4509 85.7565 86.763 84.9639 85.0715Z" fill="#010446"/>
<path d="M94.4061 93.7982L94.1339 94.612C93.8144 94.4598 93.5127 94.2727 93.2343 94.0541C93.1654 93.9897 93.359 93.6449 93.432 93.4287L94.4061 93.7982Z" fill="#010446"/>
<path d="M79.065 78.6415L78.6442 79.1048C78.4725 78.9609 78.3105 78.8059 78.1591 78.6407C78.1438 78.6227 78.338 78.3496 78.3938 78.3633C78.6251 78.4365 78.8497 78.5296 79.065 78.6415Z" fill="#010446"/>
<path d="M92.5024 92.1033C92.4162 92.174 92.3238 92.3062 92.2456 92.2983C92.1654 92.2902 92.0992 92.1449 92.0269 92.0596C92.1135 91.9888 92.2053 91.8574 92.2852 91.8643C92.3639 91.8711 92.4305 92.0179 92.5024 92.1033Z" fill="#010446"/>
<path d="M81.8552 81.4563C81.7685 81.5277 81.6756 81.6611 81.5969 81.6532C81.5164 81.6451 81.4497 81.4986 81.377 81.4126C81.464 81.3411 81.5563 81.2085 81.6366 81.2153C81.7158 81.222 81.7828 81.3702 81.8552 81.4563Z" fill="#010446"/>
<path d="M60.937 72.1307C61.1528 71.9148 61.3681 71.6993 61.5829 71.4841C61.3667 71.7005 61.1514 71.916 60.937 72.1307Z" fill="#010446"/>
<path d="M37.8253 36.4081C45.1009 39.0936 48.83 34.8972 52.0878 29.3111C54.1127 25.8389 57.4409 23.5791 60.8438 21.5237C63.5044 21.1672 66.2054 21.7625 68.4696 23.2045C72.9523 26.2348 78.0295 27.6917 83.0447 29.3289C87.4109 30.7541 91.6024 32.4042 95.1207 35.4902C98.7855 38.7049 102.948 40.5638 107.999 40.1858C109.399 40.081 110.855 40.7296 112.285 41.0323C108.49 44.5058 103.872 43.9578 99.4314 43.3299C87.351 41.6199 75.0918 41.5954 63.0047 43.2569C54.0471 44.4701 44.8937 45.9613 35.9221 42.821C34.5963 41.9602 33.0693 41.0685 33.5339 39.2133C34.0581 37.1201 35.8558 36.5267 37.8253 36.4081Z" fill="white"/>
<path d="M35.9219 42.8209C44.8935 45.9612 54.0469 44.4701 63.0045 43.2569C75.0916 41.5953 87.3508 41.6199 99.4311 43.3299C103.872 43.9577 108.489 44.5058 112.285 41.0322C113.49 41.7539 115.517 41.9225 115.444 43.6489C115.35 45.8969 113.047 45.3351 111.637 45.7546C105.675 47.529 99.6844 45.9647 93.8401 45.2312C87.8291 44.4767 81.8815 44.8135 75.9101 44.5893C66.7732 45.9575 57.5703 46.8404 48.3399 47.2342C43.874 46.6806 39.0868 47.0323 35.9219 42.8209Z" fill="#FFF4CA"/>
<path d="M68.8501 126.305C74.715 132.171 80.5799 138.036 86.4448 143.902L87.5955 142.768C81.7165 136.927 75.8376 131.085 69.9586 125.243C69.5891 125.597 69.2196 125.951 68.8501 126.305Z" fill="#F0F0F0"/>
<path d="M67.6302 122.502C66.9227 123.933 65.8984 123.553 65.147 122.827C62.0907 119.874 59.1081 116.844 56.1294 113.813C55.8398 113.578 55.6492 113.243 55.5955 112.874C55.5419 112.505 55.6291 112.13 55.8398 111.823C56.4825 110.975 57.1847 111.552 57.6827 112.043C60.8141 115.132 63.9215 118.244 67.0049 121.381C67.2621 121.726 67.4724 122.102 67.6302 122.502Z" fill="#F0F0F0"/>
<path d="M32.0433 45.2173C31.9413 45.4571 31.839 45.6962 31.7363 45.9346C31.4971 45.8301 31.1261 45.779 31.0559 45.6059C30.9869 45.4359 31.2232 45.1419 31.3256 44.9023C31.5647 45.0069 31.8039 45.1119 32.0433 45.2173Z" fill="#FFF4CA"/>
<path d="M114.948 60.1993C112.462 59.8646 110.794 58.4662 110.821 55.8923C110.785 55.3665 110.859 54.839 111.037 54.3431C111.216 53.8472 111.495 53.3936 111.857 53.0111C112.22 52.6286 112.658 52.3253 113.143 52.1206C113.629 51.9158 114.152 51.814 114.679 51.8215C115.239 51.7587 115.807 51.8164 116.343 51.9908C116.88 52.1653 117.373 52.4523 117.789 52.8328C118.206 53.2133 118.536 53.6784 118.758 54.1969C118.98 54.7155 119.089 55.2755 119.077 55.8395C119.198 58.4398 117.574 59.8673 114.948 60.1993ZM117.07 55.9931C116.904 54.6847 116.21 53.816 114.851 53.871C114.597 53.8764 114.347 53.9339 114.116 54.0399C113.885 54.1459 113.678 54.2982 113.508 54.4874C113.338 54.6765 113.209 54.8984 113.129 55.1395C113.048 55.3805 113.018 55.6356 113.04 55.8888C112.991 56.1757 113.014 56.4702 113.106 56.7464C113.197 57.0227 113.355 57.2722 113.566 57.4732C113.776 57.6743 114.033 57.8207 114.313 57.8997C114.593 57.9787 114.888 57.9879 115.172 57.9264C115.424 57.9258 115.674 57.8751 115.906 57.7773C116.139 57.6795 116.349 57.5365 116.526 57.3566C116.702 57.1767 116.841 56.9636 116.935 56.7295C117.028 56.4955 117.074 56.2452 117.07 55.9931Z" fill="#649CD3"/>
<path d="M100.051 35.4247C96.7509 30.1773 90.3864 30.1402 84.5835 26.7965C92.6623 26.5759 99.2623 30.3599 100.051 35.4247Z" fill="#F0F0F0"/>
<path d="M205.539 134.159C203.437 134.512 201.118 133.36 199.213 135.075C194.698 135.075 190.184 135.075 185.669 135.075C189.936 132.027 194.974 134.626 199.263 132.408C201.663 132.29 204.152 132.873 206.394 131.507C212.027 131.499 216.122 128.811 219.06 123.463C219.239 125.185 218.826 126.917 217.889 128.374C216.952 129.83 215.547 130.924 213.905 131.476C211.168 132.508 208.331 133.275 205.539 134.159Z" fill="#FFF4CA"/>
<path d="M206.394 131.507C204.152 132.873 201.663 132.29 199.263 132.408C199.26 131.225 199.257 130.043 199.253 128.86C201.903 128.269 204.552 127.678 207.201 127.086C206.931 128.56 206.663 130.033 206.394 131.507Z" fill="#FFF4CA"/>
<path d="M102.004 133.866C105.12 135.553 107.763 137.666 109.146 141.006C105.57 139.839 103.369 137.253 102.004 133.866Z" fill="#86BF00"/>
<path d="M152.984 67.2274C156.106 63.9901 159.228 60.7529 162.35 57.5156C160.085 61.6223 156.544 64.4769 152.984 67.2274Z" fill="#86BF00"/>
<path d="M158.46 50.6618C158.719 50.4171 158.978 50.1726 159.236 49.9285C158.977 50.1736 158.718 50.418 158.46 50.6618Z" fill="#D7EBFF"/>
<path d="M40.3752 26.8657C38.0165 26.0778 36.9602 25.1165 36.9307 22.6531C37.8086 23.0153 38.5829 23.5899 39.1841 24.3251C39.7853 25.0603 40.1945 25.9333 40.3752 26.8657Z" fill="#F0F0F0"/>
<path d="M39.7305 17.1418C41.9527 17.7243 42.9021 18.7711 43.0646 21.1766C41.1643 20.2792 40.0755 19.3534 39.7305 17.1418Z" fill="#F0F0F0"/>
<path d="M32.6133 18.1914C34.6391 18.3625 35.3959 19.3147 35.755 21.2352C33.7567 21.0544 33.017 20.0839 32.6133 18.1914Z" fill="#F0F0F0"/>
<path d="M39.3963 15.9932C37.3203 15.7884 36.5985 14.7788 36.1187 12.9023C38.2255 13.021 38.9226 14.0572 39.3963 15.9932Z" fill="#F0F0F0"/>
<path d="M41.9722 28.5567C41.9215 28.6688 41.8969 28.8158 41.8106 28.8804C41.7571 28.9204 41.61 28.8353 41.5049 28.8063L41.7582 28.2478L41.9722 28.5567Z" fill="#F0F0F0"/>
<path d="M201.017 103.189C203.265 105.913 207.224 107.308 207.991 111.874C204.95 111.189 204.842 107.395 201.909 107.554L201.927 107.57C201.631 107.27 201.335 106.97 201.039 106.669C198.876 103.874 195.315 105.55 192.647 103.995C195.378 102.654 198.237 103.288 201.017 103.189Z" fill="#F0F0F0"/>
<path d="M201.039 106.669C201.335 106.97 201.631 107.27 201.926 107.57C201.61 107.581 201.293 107.591 200.977 107.602C200.997 107.291 201.018 106.98 201.039 106.669Z" fill="#FFF4CA"/>
<path d="M17.3096 86.2335C15.5018 87.3246 14.0647 90.0456 11.4439 87.661C9.40803 85.8086 10.0897 83.8171 11.2856 81.8424C14.5323 81.6096 17.3508 81.961 17.3096 86.2335Z" fill="#F0F0F0"/>
<path d="M9.31787 78.244C9.95637 74.5944 11.0379 70.9763 9.75808 67.1902C13.0146 71.6049 12.8205 74.5839 9.3799 78.3058L9.31787 78.244Z" fill="#F0F0F0"/>
<path d="M6.67871 80.9501C7.02056 80.0716 7.36289 79.1932 7.70571 78.3149C8.24454 78.2917 8.78225 78.2682 9.31882 78.2444L9.38039 78.3057C9.38384 78.5986 9.39836 78.8909 9.42395 79.1824C9.18907 79.713 8.8039 80.1632 8.31603 80.4773C7.82816 80.7915 7.25895 80.9558 6.67871 80.9501Z" fill="#F0F0F0"/>
<path d="M238.828 127.792C241.351 122.794 243.874 117.796 246.396 112.797L247.756 113.493C246.149 118.961 242.697 123.483 240.004 128.394L238.828 127.792Z" fill="#FFF4CA"/>
<path d="M129.982 142.166L130.831 141.301C130.548 141.589 130.265 141.878 129.982 142.166Z" fill="#010446"/>
<path d="M117.074 55.9982C117.077 56.2499 117.03 56.4998 116.936 56.7332C116.841 56.9667 116.702 57.1792 116.525 57.3585C116.348 57.5378 116.138 57.6803 115.906 57.7778C115.674 57.8753 115.424 57.9258 115.173 57.9265C114.888 57.988 114.593 57.9788 114.313 57.8998C114.033 57.8208 113.776 57.6744 113.566 57.4734C113.355 57.2723 113.198 57.0228 113.106 56.7465C113.014 56.4703 112.992 56.1759 113.04 55.8889C113.018 55.6357 113.048 55.3807 113.129 55.1396C113.209 54.8986 113.339 54.6766 113.508 54.4875C113.678 54.2983 113.885 54.1461 114.116 54.04C114.347 53.934 114.597 53.8765 114.851 53.8711C116.211 53.8161 116.904 54.6848 117.074 55.9982Z" fill="#D7EBFF"/>
</svg>
