<svg width="164" height="150" viewBox="0 0 164 150" fill="none" xmlns="http://www.w3.org/2000/svg">
<path d="M61.2584 97.2838C61.5172 97.1768 61.7487 97.013 61.9356 96.8044C62.1226 96.5959 62.2602 96.348 62.3384 96.0791C66.0986 93.6373 66.1168 93.5292 63.0332 90.44C57.9179 85.3154 52.8272 80.1657 47.6591 75.0947C45.6927 73.1826 44.536 70.5879 44.4284 67.8471C44.3428 66.3864 45.0599 64.9105 44.8644 63.3805L44.8336 63.4198C45.0543 63.1946 45.275 62.9695 45.4956 62.7444C48.7984 59.3782 51.9725 55.8722 55.4376 52.6822C59.4582 48.9808 65.1502 49.305 69.318 53.282C73.4573 57.2318 77.4994 61.2835 81.584 65.2905C82.7883 66.5702 84.1019 67.7658 85.1702 69.1507C86.5997 71.0038 87.9599 71.3429 89.5596 69.4471C90.8579 69.9974 90.5134 71.2503 90.8475 72.2521C91.4357 74.0153 91.8821 76.069 94.0711 76.6095C94.9505 76.8477 95.8796 76.8302 96.7493 76.5589C97.6191 76.2877 98.3934 75.774 98.9815 75.0782C100.175 73.8623 101.049 72.3709 101.528 70.7361C102.666 66.2881 105.367 63.4053 109.925 62.2872C113.57 61.3929 116.023 59.0406 117.594 55.6554C118.068 54.633 118.267 53.2391 119.815 53.0932C120.378 53.5148 120.941 53.9365 121.504 54.3581L122.13 54.9499C123.76 56.6649 125.319 58.456 127.041 60.0736C128.768 61.6962 129.682 63.7377 130.519 65.8584C130.536 67.0601 130.552 68.262 130.569 69.4641C129.744 72.3479 128.014 74.6054 125.88 76.6737C121.555 80.8673 117.333 85.1687 113.075 89.4317C109.066 93.4454 109.069 93.4488 113.553 97.2554C117.751 101.523 121.95 105.789 126.15 110.055C131.899 115.866 132.072 120.73 126.717 126.738C124.319 129.137 121.701 131.326 119.642 134.053C118.922 134.327 118.29 135.465 117.582 134.929C116.701 134.261 117.55 133.319 117.871 132.529C118.736 130.5 119.94 128.633 121.431 127.008C121.857 126.525 122.993 126.213 122.118 124.974C118.036 127.623 116.759 131.996 114.995 136.046C110.295 136.59 106.829 134.591 103.693 131.188C99.2232 126.338 94.4107 121.803 89.7393 117.14C87.1941 114.599 86.1191 114.918 84.6957 118.622C83.0071 118.544 82.6815 120.461 81.3506 120.907C81.0511 120.872 80.7525 120.82 80.4521 120.806C75.3472 120.583 75.3471 120.584 74.398 115.668C73.9345 113.267 71.1906 111.847 68.8078 112.717C66.0751 113.715 64.6297 115.991 63.0069 118.183C60.8954 121.037 59.0097 124.424 54.7574 124.348C52.1932 124.302 49.807 124.929 47.3999 125.609C43.9817 122.549 44.2272 118.609 44.7582 114.601L44.7656 114.694C45.3855 114.531 45.4635 114.024 45.5195 113.503L50.4516 108.109C54.2493 104.701 57.857 101.087 61.2584 97.2838ZM78.6736 70.0167C78.6164 69.6955 78.4899 69.3908 78.3028 69.1236C74.7906 65.5552 71.2699 61.9945 67.7009 58.4832C66.9578 57.7521 66.0024 57.8923 65.2537 58.5871C64.3972 59.382 64.239 60.4546 65.0354 61.2688C68.5365 64.8476 72.0527 68.4183 75.7156 71.8285C76.8365 72.8721 78.65 71.7647 78.6736 70.0167ZM55.7883 111.553C55.8075 111.301 55.7728 111.048 55.6865 110.81C55.6003 110.572 55.4645 110.356 55.2881 110.174C55.1117 109.993 54.8988 109.852 54.6635 109.759C54.4282 109.666 54.1759 109.625 53.9234 109.637C52.4939 109.536 49.0002 113.104 49.1488 114.488C49.1573 114.741 49.2167 114.989 49.3237 115.219C49.4306 115.448 49.5828 115.653 49.7712 115.822C49.9595 115.992 50.1801 116.121 50.4196 116.202C50.6592 116.284 50.9127 116.316 51.1651 116.298C52.3625 116.318 55.7732 112.754 55.7883 111.553ZM110.523 82.7101L111.284 83.4682C107.49 87.2382 103.697 91.0082 99.904 94.7782C99.667 94.5434 99.43 94.3086 99.193 94.0738C102.97 90.2859 106.747 86.498 110.523 82.7101L110.523 82.7101ZM79.8686 112.512C79.8544 111.357 79.3799 110.524 78.1288 110.559C77.8018 110.536 77.4737 110.585 77.1671 110.701C76.8605 110.817 76.5827 110.998 76.353 111.232C76.1233 111.466 75.947 111.747 75.8364 112.056C75.7258 112.364 75.6835 112.693 75.7123 113.02C75.7043 114.277 76.5677 114.697 77.715 114.715C79.2219 114.74 79.9191 114.002 79.8686 112.512L79.8686 112.512ZM65.7308 88.9184C64.9652 86.9099 63.8742 85.2565 61.0709 84.5513C62.4167 86.8284 63.7478 88.2106 65.7308 88.9184V88.9184ZM115.829 103.349C114.619 101.806 113.772 99.871 111.085 99.0404C112.451 101.323 113.767 102.739 115.829 103.349V103.349ZM98.2681 122.476C99.4786 124.016 100.322 125.952 103.01 126.777C101.64 124.501 100.329 123.082 98.2681 122.476V122.476Z" fill="#D7EBFF"/>
<path d="M89.5593 69.4466C87.9596 71.3424 86.5995 71.0033 85.1699 69.1502C84.1017 67.7654 82.788 66.5698 81.5837 65.29C82.6338 64.867 83.6836 64.4438 84.7332 64.0206C87.505 63.3814 89.1121 61.3786 90.4679 59.0968C92.8441 55.0975 93.9031 50.566 95.4664 46.2546C97.1646 41.5715 100.169 39.2035 105.082 38.555C108.248 38.137 111.773 37.6954 113.068 33.8308C115.107 30.5664 114.61 26.722 115.485 23.1887C116.639 18.5311 117.733 13.8614 120.475 9.81313C124.492 3.88243 130.313 0.998659 137.239 0.0288086C140.874 1.4346 144.385 2.93763 146.559 6.52951C149.683 11.6894 149.134 16.8302 146.764 21.9966C142.456 31.3802 136.345 39.8257 128.779 46.853C127.796 47.7744 126.445 48.5163 126.356 50.1361C125.961 50.5278 125.567 50.9196 125.173 51.3114C124.124 51.2604 123.2 51.4534 122.741 52.5555C122.547 52.7456 122.352 52.9358 122.158 53.1261C121.948 53.2533 121.776 53.435 121.661 53.6518C121.546 53.8686 121.491 54.1125 121.503 54.3577C120.941 53.936 120.378 53.5144 119.815 53.0928C115.701 49.3198 110.166 48.9377 106.291 52.6305C100.569 58.0838 95.1229 63.8269 89.5593 69.4466ZM119.678 18.3364C119.899 19.3454 119.305 20.4753 120.386 20.927C121.43 21.3636 122.071 20.4121 122.576 19.7406C125.044 16.4633 127.208 13.0046 128.487 9.06211C128.738 8.28751 129.069 7.42783 128.251 6.88942C127.512 6.40356 126.774 6.83506 126.038 7.26318C121.706 9.78226 120.296 13.9051 119.678 18.3364ZM127.695 40.9249C129.099 40.21 130.151 38.8263 131.303 37.6013C134.443 34.3632 137.12 30.7072 139.26 26.7367C139.642 26.0045 140.026 25.0098 139.258 24.548C138.392 24.0273 137.813 25.0149 137.443 25.6764C136.565 27.3666 135.517 28.9624 134.314 30.439C131.893 33.2372 129.494 36.0538 127.083 38.8605C126.682 39.3271 126.285 39.8075 126.535 40.4696C126.693 40.8896 127.066 41.0285 127.695 40.9249Z" fill="#FFDE64"/>
<path d="M119.64 134.054C121.7 131.326 124.318 129.137 126.717 126.738C130.852 127.994 135.238 127.527 139.408 128.599C144.71 130.062 150.084 131.248 155.509 132.153C159.143 132.695 162.231 134.783 163.016 138.941C160.486 140.078 158.644 142.253 155.863 143.145C150.015 144.933 143.947 145.898 137.833 146.015C121.874 146.554 105.902 146.043 89.9262 146.553C76.895 146.969 63.8313 146.816 50.7682 146.282C36.8621 145.713 22.9102 146.171 9.30509 142.49C7.98492 141.795 6.36304 141.882 5.15644 140.894C4.45181 140.317 3.73588 139.701 3.86133 138.685C3.99593 137.594 4.9402 137.363 5.80601 137.118C7.93327 136.517 10.1282 136.512 12.3104 136.408C16.578 136.703 20.8516 136.399 25.1432 136.84C27.6745 137.099 31.1256 136.7 32.2996 134.044C34.4951 129.079 38.7397 128.633 43.0797 127.947C45.6784 130.154 48.0712 132.592 50.2287 135.232C49.2145 135.392 48.0562 134.882 47.2211 135.878C46.0477 135.972 44.972 133.044 43.7138 135.764C42.2591 136.125 40.77 136.387 39.3599 136.876C38.0971 137.314 36.9314 138.08 37.0741 139.671C37.1996 141.071 38.2381 141.768 39.5103 141.963C42.2503 142.49 45.0207 142.843 47.805 143.022C53.1081 143.161 58.4087 142.888 63.7167 142.627C72.3109 142.204 80.9148 141.964 89.4985 141.306C89.6281 141.973 89.5997 143.128 89.9125 143.229C92.0986 143.879 94.4227 143.906 96.6234 143.307C96.7477 143.241 96.8533 143.144 96.9307 143.027C97.0081 142.909 97.0547 142.773 97.0663 142.633C97.0292 141.982 96.4644 141.986 95.9731 141.905C94.4487 141.652 92.7852 142.449 91.3811 141.298C94.6608 141.301 97.9425 141.372 101.219 141.276C102.636 141.234 104.224 141.904 105.445 140.579C105.75 140.598 106.055 140.616 106.361 140.634C106.993 142.054 108.283 141.851 109.462 141.864C115.445 141.929 121.436 142.206 127.388 141.271C130.002 140.343 129.961 137.216 131.949 135.77C133.213 136.005 134.47 136.308 135.744 136.446C136.364 136.513 137.308 136.771 137.505 135.84C137.684 134.992 136.826 134.709 136.216 134.442C132.509 132.815 128.746 132.405 124.655 133.899C126.358 135.578 128.376 134.998 130.111 135.459C129.972 135.94 129.731 136.386 129.405 136.767C129.079 137.147 128.675 137.454 128.221 137.666C125.966 137.18 123.711 136.695 121.456 136.209C121.758 134.726 121.274 133.906 119.64 134.054ZM27.6157 143.683C28.4173 143.683 29.2225 143.73 30.0194 143.669C30.6672 143.619 31.665 143.996 31.8381 143.117C32.0516 142.033 30.9348 141.999 30.2211 141.786C26.3104 140.551 22.2224 139.971 18.1225 140.071C17.3128 140.101 16.3213 140.117 16.1928 141.076C16.0546 142.108 17.1321 142.253 17.8524 142.447C21.0325 143.316 24.3193 143.732 27.6157 143.683ZM133.542 144.128C134.722 144.654 135.999 144.929 137.291 144.937C138.583 144.944 139.862 144.684 141.048 144.172C138.597 143.474 136.002 143.459 133.542 144.128L133.542 144.128ZM42.6946 144.226C41.1223 143.639 39.5523 143.44 37.9888 144.373C39.5609 144.947 41.1312 145.19 42.6946 144.226L42.6946 144.226ZM87.9269 144.862C86.5303 144.289 85.1221 143.848 83.4459 145.084C85.2281 145.64 86.5846 145.695 87.9269 144.862L87.9269 144.862Z" fill="#ECF9CE"/>
<path d="M43.08 127.947C38.7402 128.633 34.4955 129.079 32.3001 134.045C31.126 136.7 27.675 137.1 25.1436 136.84C20.852 136.399 16.5785 136.703 12.3108 136.408C11.5996 126.792 13.6815 117.936 19.6881 110.244C21.4614 107.973 23.5885 105.978 25.5533 103.856C27.4406 103.854 29.3341 103.946 31.2143 103.828C34.8047 103.602 36.7863 101.68 36.9861 98.404C43.1774 96.286 49.4217 95.9093 55.7361 97.8323C54.3919 98.4419 53.0815 99.1458 51.6969 99.6427C48.333 100.85 44.9217 101.925 41.5576 103.132C40.5219 103.503 39.3981 104.158 39.5765 105.438C39.7388 106.602 40.9422 106.716 41.9351 106.862C44.7734 107.281 47.6122 107.696 50.4513 108.109C48.8073 109.907 47.1631 111.705 45.5188 113.504C44.9946 113.728 44.553 114.005 44.7653 114.694L44.7583 114.602C43.8783 114.528 43.5712 115.269 43.1922 115.8C40.3286 119.811 40.9388 123.877 43.08 127.947ZM28.1585 107.845C23.0071 108.838 16.7689 117.98 18.6553 122.138C19.6756 115.645 23.5005 111.474 28.1585 107.845V107.845ZM34.5482 118.838C33.0919 119.724 31.8622 120.937 30.9568 122.382C30.9032 122.468 31.3328 123.006 31.3837 122.984C32.9013 122.311 34.1225 121.109 34.8196 119.602C34.8488 119.543 34.7621 119.426 34.5482 118.838V118.838ZM30.0123 124.144C27.0696 125.525 26.5691 126.066 25.829 128.796C27.5866 127.309 28.9663 126.342 30.0123 124.144ZM29.5301 122.814C29.2326 121.888 28.7156 121.048 28.0233 120.366C27.331 119.683 26.4838 119.178 25.5541 118.894C26.4784 121.105 27.7343 122.231 29.5301 122.814L29.5301 122.814ZM34.7222 127.866C33.9457 126.201 32.9224 124.821 31.0501 124.497C31.8556 126.104 32.78 127.553 34.7222 127.866L34.7222 127.866Z" fill="#A8D04B"/>
<path d="M113.553 97.2551C109.069 93.4485 109.066 93.4451 113.075 89.4314C117.333 85.1684 121.554 80.867 125.88 76.6734C128.014 74.6051 129.744 72.3476 130.569 69.4636C134.069 66.4595 136.278 62.5248 138.438 58.5542C139.645 57.0307 141.317 56.2025 143.051 55.4674C145.562 56.9726 145.695 58.4451 143.293 60.3412C142.305 61.1217 140.656 61.863 141.098 64.2076C143.139 62.5898 144.972 60.7261 146.556 58.6589C148.298 60.4573 149.794 62.5578 152.481 64.1469C152.248 62.0039 151.059 61.434 150.258 60.6109C147.582 57.8625 147.56 57.883 150.348 55.3359C151.057 56.4243 152.319 56.6634 153.339 57.2689C154.48 57.9451 155.456 58.8681 156.194 59.9701C156.932 61.0722 157.415 62.3254 157.606 63.6381C157.798 64.9508 157.693 66.2897 157.3 67.5568C156.907 68.8238 156.236 69.9869 155.335 70.9608C144.695 82.4445 131.544 90.0528 117.154 95.7608C115.946 96.2398 114.753 96.7561 113.553 97.2551Z" fill="#FFDE64"/>
<path d="M113.067 33.8309C111.773 37.6955 108.248 38.1371 105.081 38.5551C100.169 39.2036 97.1644 41.5716 95.4663 46.2547C93.9029 50.5661 92.844 55.0976 90.4677 59.0969C89.1119 61.3787 87.5048 63.3815 84.733 64.0207C84.7611 62.9307 84.4747 61.8557 83.9079 60.9242C77.9792 49.3852 83.1175 36.0322 95.3259 31.6495C100.168 29.9113 105.196 30.3378 110.063 32.0803C110.171 33.2374 110.998 33.2372 111.854 33.1918C112.258 33.4049 112.663 33.6179 113.067 33.8309ZM92.1206 46.8848C89.9196 51.2951 88.3483 55.9294 85.7652 60.102C89.9195 56.6516 91.0946 51.7665 92.1206 46.8848Z" fill="#FFF4CA"/>
<path d="M9.30552 142.49C22.9106 146.171 36.8626 145.713 50.7686 146.282C63.8317 146.816 76.8954 146.969 89.9267 146.553C105.902 146.043 121.874 146.554 137.833 146.015C143.947 145.898 150.015 144.933 155.863 143.145C158.645 142.253 160.486 140.078 163.017 138.941C162.871 141.886 160.833 143.306 158.51 144.45C152.406 147.455 145.756 148.219 139.149 148.345C103.878 149.017 68.6014 149.672 33.333 148.293C26.6199 148.03 19.8603 147.694 13.3138 145.958C11.5639 145.494 9.02457 145.494 9.30552 142.49Z" fill="#A8D04B"/>
<path d="M44.8641 63.3804C45.0596 64.9104 44.3425 66.3863 44.4281 67.847C44.5357 70.5878 45.6923 73.1825 47.6588 75.0946C52.8268 80.1656 57.9176 85.3153 63.0328 90.4399C66.1165 93.5291 66.0983 93.6372 62.3381 96.079C59.5667 93.4094 56.795 90.7395 54.0232 88.0692C50.8072 84.8325 47.591 81.5956 44.3745 78.3586C40.0217 72.7738 40.1907 67.6029 44.8641 63.3804Z" fill="#466D94"/>
<path d="M126.356 50.1364C126.445 48.5166 127.796 47.7747 128.78 46.8533C136.345 39.826 142.456 31.3805 146.764 21.9969C149.134 16.8304 149.683 11.6897 146.56 6.52981C144.386 2.93793 140.875 1.4349 137.239 0.0291077C140.032 0.13236 142.849 -0.352088 145.6 0.645675C152.575 3.17488 155.069 9.26238 152.081 16.7602C149.58 22.8963 146.254 28.6622 142.194 33.8983C138.078 39.2197 133.535 44.1968 128.61 48.7803C127.955 49.3992 127.381 50.139 126.356 50.1364Z" fill="#FFF4CA"/>
<path d="M44.3742 78.3584C47.5905 81.5953 50.8067 84.8322 54.0228 88.0689C48.7881 88.8072 43.7148 90.4012 38.4144 90.8679C36.6165 91.0263 34.8255 91.1171 33.0309 91.1566C31.7805 91.1841 30.1676 91.5437 29.8638 89.7268C29.6128 88.2256 30.3784 87.0414 31.7534 86.2781C35.1702 84.3816 38.5633 82.4424 41.9848 80.5546C43 80.1035 43.8393 79.332 44.3742 78.3584Z" fill="#FFDE64"/>
<path d="M8.61961 95.3971C8.45959 93.5052 9.50556 93.0639 11.1944 92.9354C14.2316 92.7043 16.9403 93.764 19.6517 94.7905C23.7279 96.3338 27.9546 95.97 32.1593 96.0324C33.9758 96.0593 35.8851 96.0193 36.4266 98.3946C34.8859 99.4578 33.6766 100.962 31.6522 101.355C28.0257 101.988 24.3118 101.925 20.7089 101.169C17.0118 100.488 13.8622 98.4968 10.4289 97.1938C10.0339 96.802 9.63883 96.4102 9.24371 96.0184C9.03556 95.8112 8.82753 95.6041 8.61961 95.3971Z" fill="#FFDE64"/>
<path d="M50.4512 108.108C47.6124 107.693 44.7737 107.278 41.935 106.862C40.9422 106.716 39.7387 106.601 39.5764 105.438C39.398 104.158 40.5218 103.503 41.5575 103.131C44.9216 101.925 48.3329 100.849 51.6968 99.6422C53.0814 99.1453 54.3918 98.4415 55.736 97.8319C57.5769 97.649 59.4177 97.4661 61.2583 97.2832C57.8568 101.087 54.249 104.7 50.4512 108.108Z" fill="#FFDE64"/>
<path d="M10.4288 97.1938C13.8621 98.4969 17.0117 100.488 20.7089 101.169C24.3118 101.925 28.0257 101.988 31.6522 101.355C33.6765 100.962 34.8859 99.4579 36.4266 98.3947C36.6133 98.3994 36.7998 98.4025 36.9861 98.4039C36.786 101.68 34.8045 103.602 31.2141 103.828C29.3338 103.946 27.4403 103.853 25.553 103.856C20.9027 103.921 16.7351 102.271 12.7372 100.132C11.6121 99.5302 10.5195 98.7034 10.4288 97.1938Z" fill="#FFF4CA"/>
<path d="M150.348 55.3359C147.56 57.8829 147.581 57.8624 150.257 60.6109C151.059 61.4339 152.248 62.0039 152.481 64.1469C149.794 62.5578 148.298 60.4573 146.556 58.6589C144.972 60.7261 143.138 62.5897 141.098 64.2076C140.656 61.863 142.305 61.1217 143.293 60.3412C145.695 58.4451 145.562 56.9726 143.051 55.4674C142.472 54.3334 140.883 53.8025 140.886 51.9843C142.879 52.474 143.541 54.2676 144.954 55.0442C145.519 55.7958 146.084 56.548 146.649 57.3008L148.304 55.0729C149.714 54.2478 150.419 52.5076 152.28 51.918C152.663 53.8014 150.831 54.1918 150.348 55.3359Z" fill="#649CD3"/>
<path d="M135.758 89.5518C143.994 83.333 153.707 78.8587 159.634 69.8237C155.145 80.4889 144.62 84.0273 135.758 89.5518Z" fill="#FFF4CA"/>
<path d="M140.031 40.094C144.925 32.5457 150.673 25.5725 154.265 17.2373C151.719 26.2252 146.366 33.4833 140.031 40.094Z" fill="#FFF4CA"/>
<path d="M111.854 33.192C110.999 33.2373 110.171 33.2376 110.064 32.0805C111.822 28.0015 111.438 23.5147 112.493 19.3004C113.195 16.4979 113.741 13.6432 115.601 11.2852C115.894 10.8358 116.28 10.4553 116.734 10.1697C117.189 9.88412 117.699 9.70029 118.231 9.63086C112.752 16.9947 113.306 25.3323 111.854 33.192Z" fill="#FFDE64"/>
<path d="M136.646 109.894C134.198 111.018 132.489 110.147 131.648 107.764C131.48 107.363 131.398 106.931 131.408 106.496C131.418 106.06 131.519 105.632 131.706 105.239C131.892 104.846 132.159 104.496 132.489 104.213C132.819 103.929 133.205 103.718 133.622 103.594C135.577 102.868 137.451 103.08 138.014 105.669C137.898 106.051 138.1 106.216 138.438 106.288C138.436 106.675 138.435 107.062 138.434 107.449C138.093 107.524 137.894 107.699 137.994 108.081C137.946 108.291 137.899 108.501 137.852 108.711C135.772 108.764 137.354 107.498 137.293 106.929C137.155 105.642 136.565 104.813 135.363 104.59C134.092 104.354 133.223 105.066 132.908 106.274C132.585 107.517 133.16 108.347 134.305 108.927C135.068 109.313 136.19 108.81 136.646 109.894Z" fill="#649CD3"/>
<path d="M138.437 58.5542C136.278 62.5248 134.069 66.4595 130.569 69.4636C130.552 68.2618 130.536 67.0599 130.519 65.8581C132.851 64.5582 133.715 61.8644 135.793 60.3116C136.646 59.6749 137.19 58.5951 138.437 58.5542Z" fill="#FFF4CA"/>
<path d="M136.646 109.894C136.191 108.81 135.068 109.313 134.305 108.927C133.16 108.347 132.585 107.517 132.908 106.274C133.223 105.066 134.092 104.354 135.363 104.59C136.565 104.813 137.156 105.642 137.293 106.929C137.354 107.498 135.773 108.764 137.852 108.711C137.867 108.872 137.845 109.034 137.79 109.186C137.734 109.338 137.645 109.475 137.53 109.588C137.414 109.702 137.275 109.788 137.122 109.841C136.969 109.894 136.807 109.912 136.646 109.894Z" fill="white"/>
<path d="M148.55 126.036C146.526 125.623 145.617 124.061 144.618 122.582C146.794 122.747 147.745 124.326 148.55 126.036Z" fill="#649CD3"/>
<path d="M0.983276 117.121C2.97725 117.696 3.82163 119.224 5.10488 120.604C2.96449 120.503 2.14838 119.796 0.983276 117.121Z" fill="#649CD3"/>
<path d="M152.137 97.7598C154.182 98.3999 154.907 99.4016 155.74 100.663C153.748 100.828 153.172 99.5747 152.137 97.7598Z" fill="#FFDE64"/>
<path d="M148.304 55.0731L146.649 57.301C146.084 56.548 145.519 55.7958 144.954 55.0444C146.071 55.0542 147.187 55.0637 148.304 55.0731Z" fill="#FFDE64"/>
<path d="M122.741 52.5556C123.2 51.4535 124.124 51.2605 125.173 51.3116C124.715 52.4145 123.79 52.6058 122.741 52.5556Z" fill="#FFF4CA"/>
<path d="M121.503 54.3581C121.491 54.1129 121.546 53.869 121.661 53.6522C121.776 53.4354 121.948 53.2538 122.158 53.1265C122.149 53.7342 122.139 54.342 122.13 54.95L121.503 54.3581Z" fill="#FFF4CA"/>
<path d="M45.4953 62.7441C45.2746 62.9693 45.0539 63.1944 44.8333 63.4195L45.4953 62.7441Z" fill="#466D94"/>
<path d="M8.61987 95.3975C8.82784 95.6045 9.03588 95.8116 9.244 96.0187C9.0361 95.8117 8.82806 95.6046 8.61987 95.3975Z" fill="#FFF4CA"/>
<path d="M137.993 108.08C137.894 107.699 138.092 107.524 138.433 107.449C138.287 107.66 138.14 107.87 137.993 108.08Z" fill="white"/>
<path d="M138.438 106.288C138.1 106.216 137.899 106.051 138.014 105.669L138.438 106.288Z" fill="white"/>
<path d="M47.3994 125.609C49.8065 124.929 52.1927 124.302 54.7569 124.348C59.0093 124.424 60.8949 121.037 63.0064 118.183C64.6292 115.99 66.0746 113.715 68.8073 112.717C71.1901 111.847 73.9341 113.267 74.3975 115.668C75.3466 120.584 75.3467 120.583 80.4516 120.806C80.752 120.82 81.0506 120.872 81.3501 120.907C81.2299 121.185 81.1098 121.464 80.9896 121.744C79.2379 123.265 77.3882 124.692 76.2052 126.755C73.1805 129.02 70.7421 131.887 68.1428 134.59C67.8192 134.768 67.4956 134.946 67.172 135.124C66.6996 135.251 66.1689 135.282 65.9755 135.861L66.0008 135.849C62.1552 136.57 58.4101 136.553 55.3339 133.706C52.4898 131.21 49.8375 128.503 47.3994 125.609ZM66.434 131.319C68.6727 130.075 70.0715 128.999 70.8839 126.495C68.8215 127.847 67.4245 128.925 66.434 131.319V131.319Z" fill="#649CD3"/>
<path d="M89.5596 69.4468C95.1232 63.8271 100.569 58.0839 106.291 52.6307C110.166 48.9379 115.702 49.32 119.815 53.093C118.267 53.2389 118.068 54.6327 117.594 55.6551C116.022 59.0403 113.57 61.3926 109.925 62.2869C105.367 63.405 102.666 66.2878 101.528 70.7358C101.049 72.3707 100.175 73.8621 98.9814 75.0779C98.3933 75.7737 97.619 76.2874 96.7493 76.5587C95.8795 76.8299 94.9504 76.8475 94.0711 76.6093C91.882 76.0687 91.4357 74.015 90.8475 72.2518C90.5133 71.25 90.8578 69.9971 89.5596 69.4468ZM98.1348 63.682C96.009 64.7042 94.0799 65.946 93.5291 68.4548C95.557 67.4265 97.1794 65.7453 98.1348 63.682Z" fill="#649CD3"/>
<path d="M84.6953 118.622C86.1188 114.918 87.1937 114.598 89.7389 117.139C94.4103 121.803 99.2229 126.337 103.692 131.187C106.828 134.591 110.295 136.589 114.995 136.045C114.956 136.997 114.669 137.922 114.162 138.729C111.639 139.177 109.123 140.04 106.576 138.838C106.19 137.772 106.417 136.315 104.863 135.928C104.459 136.725 104.908 137.338 104.986 137.988C103.257 137.643 102.472 135.937 100.998 135.223C98.4933 132.104 95.6607 129.262 92.5488 126.749C90.2812 123.701 87.3805 121.266 84.6953 118.622Z" fill="#466D94"/>
<path d="M47.3997 125.609C49.8378 128.503 52.4902 131.21 55.3342 133.707C58.4104 136.553 62.1555 136.571 66.0011 135.849C63.813 139.107 60.3069 140.153 55.6889 138.927C54.3814 136.666 53.7494 133.915 50.9065 132.725C51.7563 134.219 52.6062 135.713 53.4561 137.207C51.976 137.209 51.4281 135.688 50.229 135.232C48.0716 132.592 45.6788 130.154 43.0803 127.947C40.9389 123.877 40.3286 119.811 43.1923 115.8C43.5713 115.269 43.8784 114.528 44.7584 114.602C44.227 118.609 43.9816 122.549 47.3997 125.609Z" fill="#466D94"/>
<path d="M78.6733 70.0162C78.6497 71.7642 76.8362 72.8717 75.7152 71.828C72.0523 68.4178 68.5361 64.8472 65.0351 61.2683C64.2386 60.4542 64.3969 59.3816 65.2534 58.5867C66.0021 57.8918 66.9574 57.7517 67.7005 58.4828C71.2696 61.9941 74.7903 65.5547 78.3024 69.1231C78.4895 69.3903 78.6161 69.6951 78.6733 70.0162Z" fill="white"/>
<path d="M84.6953 118.622C87.3805 121.266 90.2812 123.702 92.5489 126.75C89.1399 126.666 85.7309 126.582 82.3218 126.498L80.9897 121.743C81.1099 121.464 81.23 121.185 81.3502 120.907C82.6812 120.461 83.0067 118.544 84.6953 118.622Z" fill="#FEFEFE"/>
<path d="M114.162 138.729C114.669 137.922 114.956 136.997 114.995 136.045C116.759 131.996 118.035 127.623 122.117 124.974C122.993 126.213 121.856 126.525 121.431 127.008C119.94 128.633 118.736 130.5 117.871 132.528C117.55 133.319 116.7 134.261 117.582 134.929C118.289 135.465 118.922 134.327 119.641 134.053C121.274 133.906 121.758 134.726 121.456 136.21C118.963 136.576 118.878 139.483 116.991 140.674C116.171 138.613 118.975 137.2 117.607 135.198C115.873 135.981 116.342 137.799 115.678 139.04C115.389 139.58 115.612 140.664 114.563 140.362C114.295 140.285 114.289 139.298 114.162 138.729Z" fill="#C2E6DF"/>
<path d="M55.7863 111.555C55.773 112.754 52.3623 116.318 51.1649 116.297C50.9125 116.316 50.659 116.284 50.4194 116.202C50.1799 116.121 49.9593 115.991 49.771 115.822C49.5826 115.653 49.4304 115.448 49.3235 115.218C49.2165 114.989 49.1571 114.74 49.1486 114.487C49 113.104 52.4937 109.536 53.9232 109.637C54.1758 109.625 54.4282 109.666 54.6635 109.759C54.8989 109.852 55.1118 109.993 55.288 110.175C55.4643 110.356 55.5999 110.573 55.6858 110.811C55.7717 111.049 55.806 111.303 55.7863 111.555Z" fill="white"/>
<path d="M110.523 82.71C106.746 86.4979 102.969 90.2858 99.1925 94.0737C99.4295 94.3085 99.6665 94.5433 99.9034 94.7781C103.697 91.0081 107.49 87.2381 111.283 83.468L110.523 82.71Z" fill="#649CD3"/>
<path d="M79.866 112.513C79.9186 114.001 79.2214 114.74 77.7144 114.715C76.5672 114.697 75.7038 114.277 75.7118 113.02C75.6829 112.693 75.7253 112.364 75.8359 112.055C75.9465 111.747 76.1228 111.466 76.3525 111.232C76.5822 110.998 76.86 110.817 77.1665 110.701C77.4731 110.585 77.8013 110.536 78.1283 110.559C79.3793 110.524 79.8538 111.357 79.866 112.513Z" fill="#649CD3"/>
<path d="M65.7302 88.9184C63.7472 88.2107 62.4162 86.8284 61.0703 84.5513C63.8737 85.2565 64.9647 86.9099 65.7302 88.9184Z" fill="#466D94"/>
<path d="M115.828 103.349C113.767 102.739 112.45 101.323 111.084 99.0405C113.772 99.8711 114.618 101.806 115.828 103.349Z" fill="#649CD3"/>
<path d="M98.2676 122.477C100.328 123.082 101.64 124.501 103.01 126.777C100.321 125.952 99.4781 124.017 98.2676 122.477Z" fill="#649CD3"/>
<path d="M44.7654 114.694C44.5531 114.004 44.9947 113.728 45.5189 113.503C45.4633 114.024 45.3853 114.53 44.7654 114.694Z" fill="#466D94"/>
<path d="M119.677 18.3367C120.295 13.9053 121.705 9.78248 126.038 7.26341C126.774 6.83529 127.511 6.40378 128.25 6.88965C129.069 7.42805 128.738 8.28773 128.487 9.06233C127.208 13.0048 125.044 16.4635 122.576 19.7408C122.07 20.4123 121.43 21.3638 120.386 20.9272C119.305 20.4756 119.899 19.3456 119.677 18.3367Z" fill="#FFF4CA"/>
<path d="M127.695 40.925C127.065 41.0286 126.693 40.8896 126.535 40.4697C126.285 39.8075 126.681 39.3271 127.082 38.8606C129.493 36.0538 131.893 33.2372 134.314 30.439C135.517 28.9625 136.565 27.3666 137.443 25.6764C137.813 25.0149 138.391 24.0273 139.257 24.548C140.025 25.0099 139.641 26.0046 139.26 26.7368C137.12 30.7072 134.443 34.3633 131.303 37.6013C130.15 38.8263 129.098 40.2101 127.695 40.925Z" fill="#FFF4CA"/>
<path d="M55.6883 138.926C60.3063 140.153 63.8125 139.106 66.0006 135.849L65.9753 135.861C66.2306 135.908 66.4942 135.858 66.7152 135.722C66.9361 135.586 67.0988 135.373 67.1718 135.124C67.4954 134.946 67.8194 134.768 68.1438 134.589C79.0938 134.911 90.0389 135.42 100.997 135.223C102.471 135.937 103.257 137.643 104.984 137.986C105.137 138.849 105.291 139.713 105.446 140.578C104.224 141.903 102.636 141.234 101.219 141.275C97.9424 141.371 94.6607 141.301 91.3806 141.297C90.753 141.3 90.1256 141.303 89.4985 141.306C80.9148 141.963 72.3108 142.204 63.7167 142.627C58.4086 142.888 53.1081 143.161 47.805 143.021C45.0206 142.843 42.2502 142.489 39.5102 141.963C38.238 141.767 37.1995 141.071 37.074 139.671C36.9313 138.08 38.0971 137.314 39.3599 136.876C40.77 136.386 42.259 136.125 43.7133 135.764C46.8481 136.612 48.9759 139.278 52.396 140.85C51.1466 138.059 48.9391 137.229 47.2211 135.877C48.0561 134.882 49.2145 135.392 50.2287 135.231C51.4276 135.688 51.9754 137.208 53.4544 137.205C53.781 138 54.1263 138.79 54.4296 139.596C54.6005 140.05 54.7485 140.69 55.3189 140.472C55.9819 140.219 55.6423 139.471 55.6883 138.926Z" fill="#589F92"/>
<path d="M114.162 138.729C114.289 139.298 114.295 140.285 114.563 140.362C115.611 140.664 115.389 139.58 115.678 139.04C116.342 137.8 115.873 135.981 117.607 135.198C118.975 137.2 116.171 138.613 116.991 140.674C118.878 139.483 118.963 136.576 121.456 136.21C123.711 136.695 125.966 137.18 128.221 137.666C127.942 138.867 127.664 140.069 127.386 141.27C121.436 142.206 115.445 141.928 109.462 141.863C108.283 141.851 106.993 142.054 106.362 140.634C106.433 140.036 106.505 139.437 106.576 138.838C109.123 140.041 111.639 139.178 114.162 138.729Z" fill="#589F92"/>
<path d="M27.6159 143.685C24.3195 143.732 21.0329 143.315 17.8527 142.447C17.1324 142.253 16.0549 142.108 16.1931 141.076C16.3216 140.117 17.3131 140.101 18.1228 140.071C22.2227 139.971 26.3108 140.551 30.2214 141.786C30.9351 141.999 32.0519 142.033 31.8384 143.117C31.6653 143.996 30.6676 143.619 30.0198 143.668C29.2228 143.73 28.4176 143.683 27.6159 143.685Z" fill="#589F92"/>
<path d="M130.111 135.458C128.377 134.998 126.358 135.578 124.655 133.899C128.746 132.405 132.51 132.814 136.217 134.442C136.826 134.709 137.685 134.992 137.506 135.84C137.309 136.771 136.364 136.513 135.745 136.446C134.47 136.308 133.214 136.005 131.949 135.77C131.44 135.056 130.769 135.296 130.111 135.458Z" fill="#A8D04B"/>
<path d="M89.4989 141.306C90.1262 141.303 90.7535 141.301 91.381 141.298C92.7856 142.449 94.4491 141.652 95.9734 141.905C96.4648 141.986 97.0296 141.982 97.0666 142.633C97.055 142.773 97.0084 142.909 96.931 143.026C96.8537 143.144 96.748 143.241 96.6237 143.307C94.423 143.906 92.099 143.879 89.9129 143.229C89.6001 143.128 89.6285 141.973 89.4989 141.306Z" fill="#A8D04B"/>
<path d="M47.2215 135.878C48.9395 137.23 51.147 138.06 52.3964 140.85C48.9763 139.278 46.8485 136.612 43.7137 135.765C44.9724 133.044 46.0481 135.972 47.2215 135.878Z" fill="#C2E6DF"/>
<path d="M133.542 144.128C136.002 143.459 138.597 143.474 141.049 144.171C139.862 144.684 138.583 144.944 137.291 144.937C135.999 144.929 134.723 144.654 133.542 144.128Z" fill="#A8D04B"/>
<path d="M130.111 135.458C130.769 135.296 131.44 135.056 131.949 135.77C129.961 137.215 130.002 140.343 127.388 141.27C127.664 140.069 127.942 138.867 128.221 137.666C128.675 137.454 129.079 137.147 129.405 136.767C129.731 136.386 129.972 135.94 130.111 135.458Z" fill="#C2E6DF"/>
<path d="M106.576 138.838C106.505 139.437 106.433 140.036 106.362 140.634C106.056 140.616 105.75 140.597 105.445 140.579C105.292 139.714 105.138 138.85 104.985 137.987C104.908 137.339 104.459 136.725 104.863 135.928C106.417 136.315 106.19 137.772 106.576 138.838Z" fill="#C2E6DF"/>
<path d="M42.695 144.226C41.1316 145.19 39.5613 144.947 37.9891 144.373C39.5527 143.44 41.1227 143.639 42.695 144.226Z" fill="#A8D04B"/>
<path d="M87.927 144.862C86.5848 145.696 85.2283 145.641 83.446 145.085C85.1222 143.848 86.5305 144.289 87.927 144.862Z" fill="#A8D04B"/>
<path d="M28.1586 107.844C23.5005 111.474 19.6757 115.645 18.6553 122.138C16.769 117.98 23.0071 108.837 28.1586 107.844Z" fill="#FFF4CA"/>
<path d="M34.5479 118.838C34.7619 119.426 34.8485 119.542 34.8193 119.602C34.1222 121.109 32.9011 122.311 31.3834 122.984C31.3326 123.006 30.9029 122.467 30.9565 122.381C31.862 120.937 33.0916 119.724 34.5479 118.838Z" fill="#649CD3"/>
<path d="M30.0125 124.144C28.9664 126.342 27.5868 127.309 25.8292 128.795C26.5693 126.066 27.0698 125.525 30.0125 124.144Z" fill="#649CD3"/>
<path d="M29.5297 122.814C27.7339 122.231 26.478 121.105 25.5537 118.894C26.4834 119.178 27.3306 119.683 28.0229 120.366C28.7152 121.048 29.2322 121.888 29.5297 122.814Z" fill="#649CD3"/>
<path d="M34.7222 127.865C32.7799 127.552 31.8556 126.104 31.05 124.497C32.9224 124.82 33.9457 126.201 34.7222 127.865Z" fill="#649CD3"/>
<path d="M92.1206 46.8848C91.0946 51.7665 89.9196 56.6516 85.7653 60.102C88.3484 55.9293 89.9197 51.2951 92.1206 46.8848Z" fill="#FFF4CA"/>
<path d="M100.998 135.223C90.0389 135.42 79.0938 134.912 68.1439 134.59C70.7419 131.888 73.1804 129.02 76.205 126.756C78.2438 126.67 80.2827 126.584 82.3216 126.498C85.7306 126.582 89.1396 126.666 92.5487 126.75C95.6606 129.263 98.4932 132.104 100.998 135.223Z" fill="#ECF9CE"/>
<path d="M82.3218 126.498C80.2829 126.584 78.2441 126.67 76.2052 126.756C77.3883 124.692 79.238 123.265 80.9897 121.744C81.4337 123.328 81.8778 124.913 82.3218 126.498Z" fill="#A8D04B"/>
<path d="M66.4341 131.319C67.4246 128.925 68.8215 127.847 70.8839 126.495C70.0715 128.999 68.6728 130.075 66.4341 131.319Z" fill="#466D94"/>
<path d="M67.172 135.124C67.0991 135.373 66.9364 135.586 66.7154 135.722C66.4944 135.859 66.2309 135.908 65.9756 135.861C66.1689 135.282 66.6996 135.25 67.172 135.124Z" fill="#466D94"/>
<path d="M98.1342 63.6821C97.1788 65.7454 95.5563 67.4266 93.5284 68.4549C94.0793 65.9461 96.0084 64.7043 98.1342 63.6821Z" fill="#466D94"/>
<path d="M55.6885 138.926C55.6425 139.471 55.982 140.219 55.319 140.472C54.7487 140.691 54.6007 140.051 54.4298 139.597C54.1265 138.791 53.7812 138.001 53.4546 137.205C52.6058 135.713 51.7563 134.219 50.9061 132.725C53.7491 133.914 54.3811 136.665 55.6885 138.926Z" fill="#C2E6DF"/>
</svg>
