<svg width="32" height="32" viewBox="0 0 32 32" fill="none" xmlns="http://www.w3.org/2000/svg">
<path fill-rule="evenodd" clip-rule="evenodd" d="M15.9998 4.66667C9.7505 4.66667 4.6665 9.75067 4.6665 16C4.6665 22.2493 9.7505 27.3333 15.9998 27.3333C22.2492 27.3333 27.3332 22.2493 27.3332 16C27.3332 9.75067 22.2492 4.66667 15.9998 4.66667ZM15.9998 29.3333C8.64784 29.3333 2.6665 23.352 2.6665 16C2.6665 8.64801 8.64784 2.66667 15.9998 2.66667C23.3518 2.66667 29.3332 8.64801 29.3332 16C29.3332 23.352 23.3518 29.3333 15.9998 29.3333Z" fill="#C60000"/>
<path fill-rule="evenodd" clip-rule="evenodd" d="M15.9922 17.8307C15.4402 17.8307 14.9922 17.3827 14.9922 16.8307V10.9387C14.9922 10.3867 15.4402 9.93867 15.9922 9.93867C16.5442 9.93867 16.9922 10.3867 16.9922 10.9387V16.8307C16.9922 17.3827 16.5442 17.8307 15.9922 17.8307Z" fill="#C60000"/>
<path fill-rule="evenodd" clip-rule="evenodd" d="M16.005 22.3945C15.2677 22.3945 14.665 21.7985 14.665 21.0612C14.665 20.3239 15.2557 19.7279 15.9917 19.7279H16.005C16.7424 19.7279 17.3384 20.3239 17.3384 21.0612C17.3384 21.7985 16.7424 22.3945 16.005 22.3945Z" fill="#C60000"/>
</svg>
