<svg width="1117" height="1117" viewBox="0 0 1117 1117" fill="none" xmlns="http://www.w3.org/2000/svg">
<path d="M670.152 446.788L670.212 558.5H781.864L893.576 446.788H670.152Z" fill="#010446"/>
<path d="M670.152 446.788L670.212 558.5L781.864 446.788H670.152Z" fill="white"/>
<path d="M893.576 446.788V335.076H670.152L670.212 446.788H893.576Z" fill="#F4B242"/>
<path d="M558.5 111.712L446.788 111.712V223.424H558.5V111.712Z" fill="white"/>
<path d="M670.152 0L558.44 0V111.712L670.152 111.712V0Z" fill="white"/>
<path d="M446.788 446.788L446.788 670.152L670.212 446.788L558.5 335.076L446.788 446.788Z" fill="white"/>
<path d="M558.486 378.54L490.231 446.795L558.486 515.05L626.741 446.795L558.486 378.54Z" fill="#63CD72"/>
<path d="M558.531 417.189L528.92 446.801L558.531 476.412L588.142 446.801L558.531 417.189Z" fill="white"/>
<path d="M781.864 335.076L670.212 223.424L558.5 335.076L670.212 446.788L781.864 335.076Z" fill="#9578F7"/>
<path d="M781.864 335.076H893.576V223.364L781.864 335.076Z" fill="#F4B242"/>
<path d="M893.575 0V223.364L1116.94 0L893.575 0Z" fill="#F4B242"/>
<path d="M893.575 223.364L1116.94 0C993.598 0 893.575 100.023 893.575 223.364Z" fill="#9578F7"/>
<path d="M1117 111.712V335.076H893.575L1005.29 223.424L1117 111.712Z" fill="#9578F7"/>
<path d="M670.212 223.364H558.5V335.076L670.212 223.364Z" fill="#F4B242"/>
<path d="M446.788 335.076V446.788L558.5 335.076H446.788Z" fill="#F4B242"/>
<path d="M558.5 223.364H446.788V335.076H558.5V223.364Z" fill="#010446"/>
<path d="M558.5 0L446.788 0V111.712L558.5 111.712V0Z" fill="#9578F7"/>
<path d="M670.212 111.712L558.5 111.712V223.424H670.212V111.712Z" fill="#9578F7"/>
<path d="M614.365 129.474L576.275 167.564L614.365 205.654L652.455 167.564L614.365 129.474Z" fill="#63CD72"/>
<path d="M499.199 16.8995L461.11 54.9893L499.199 93.079L537.289 54.9893L499.199 16.8995Z" fill="#63CD72"/>
<path d="M499.149 201.913C516.201 201.913 529.999 188.115 529.999 171.063C529.999 154.011 516.201 140.212 499.149 140.212C482.097 140.212 468.299 154.011 468.299 171.063C468.299 188.055 482.157 201.913 499.149 201.913Z" fill="#F4B242"/>
<path d="M613.753 83.2719C630.805 83.2719 644.604 69.4736 644.604 52.4215C644.604 35.3695 630.805 21.5712 613.753 21.5712C596.701 21.5712 582.903 35.3695 582.903 52.4215C582.903 69.4133 596.701 83.2719 613.753 83.2719Z" fill="#F4B242"/>
<path d="M670.212 0V223.364L838.262 55.3137L853.687 39.8885L893.576 0L670.212 0Z" fill="#010446"/>
<path d="M670.212 0V223.364L781.864 111.712L670.212 0Z" fill="#F4B242"/>
<path d="M446.788 670.152H558.5V558.5L446.788 670.152Z" fill="#F4B242"/>
<path d="M670.212 558.5V446.788L558.5 558.5H670.212Z" fill="#F4B242"/>
<path d="M670.212 558.5H558.5V670.212H670.212V558.5Z" fill="#9578F7"/>
<path d="M781.864 111.712V335.076L670.212 223.424L781.864 111.712Z" fill="#63CD72"/>
<path d="M670.212 223.424L653.943 239.693H686.481L670.212 223.424Z" fill="#010446"/>
<path d="M704.738 257.89H635.686L619.417 274.219H721.007L704.738 257.89Z" fill="#010446"/>
<path d="M739.264 292.416H601.16L584.891 308.745H755.533L739.264 292.416Z" fill="#010446"/>
<path d="M781.864 335.076L773.729 326.942H566.634L558.5 335.076L566.634 343.21H773.729L781.864 335.076Z" fill="#010446"/>
<path d="M755.533 361.468H584.891L601.16 377.736H739.204L755.533 361.468Z" fill="#010446"/>
<path d="M721.007 395.993H619.417L635.686 412.262H704.738L721.007 395.993Z" fill="#010446"/>
<path d="M653.943 430.519L670.212 446.788L686.481 430.519H653.943Z" fill="#010446"/>
<path d="M1117 111.712V335.076L1005.29 223.424L1117 111.712Z" fill="#63CD72"/>
<path d="M1117 111.712L893.575 335.076V223.364L1116.94 0L1117 111.712Z" fill="white"/>
<path d="M893.576 223.364V0L781.864 111.712V335.076L893.576 223.364Z" fill="white"/>
<path d="M893.576 558.5H1005.29V446.788L893.576 558.5Z" fill="#63CD72"/>
<path d="M1116.94 446.788V335.076L1005.29 446.788H1116.94Z" fill="#F4B242"/>
<path d="M1117 446.788H1005.29V558.5H1117V446.788Z" fill="white"/>
<path d="M1061.14 469.263C1042.71 469.263 1027.76 484.206 1027.76 502.644C1027.76 521.082 1042.71 536.025 1061.14 536.025C1079.58 536.025 1094.52 521.082 1094.52 502.644C1094.52 484.206 1079.58 469.263 1061.14 469.263Z" fill="#63CD72"/>
<path d="M893.576 446.788V558.5L1005.29 446.788H893.576Z" fill="#9578F7"/>
<path d="M1005.29 335.076H893.575V446.788H1005.29V335.076Z" fill="#9578F7"/>
<path d="M893.575 1117H1005.29V1005.29L893.575 1117Z" fill="#63CD72"/>
<path d="M1117 1005.29V893.576L1005.29 1005.29H1117Z" fill="#F4B242"/>
<path d="M1117 1005.29H1005.29V1117H1117V1005.29Z" fill="#F4B242"/>
<path d="M1061.14 1027.76C1042.71 1027.76 1027.76 1042.71 1027.76 1061.14C1027.76 1079.58 1042.71 1094.52 1061.14 1094.52C1079.58 1094.52 1094.52 1079.58 1094.52 1061.14C1094.52 1042.71 1079.58 1027.76 1061.14 1027.76Z" fill="white"/>
<path d="M893.575 1005.29V1117L1005.29 1005.29H893.575Z" fill="#9578F7"/>
<path d="M1005.29 893.576H893.575V1005.29H1005.29V893.576Z" fill="#9578F7"/>
<path d="M893.576 893.576L670.212 1117H893.576V893.576Z" fill="#010446"/>
<path d="M838.262 948.889C852.663 963.29 861.641 983.235 861.641 1005.29C861.641 1027.28 852.723 1047.22 838.262 1061.63C823.861 1076.03 803.917 1085 781.924 1085C759.871 1085 739.987 1076.09 725.526 1061.63L670.212 1116.94H893.576V893.576L838.262 948.889Z" fill="#010446"/>
<path d="M823.439 1005.29C823.439 1028.18 804.821 1046.8 781.924 1046.8C770.476 1046.8 760.052 1042.16 752.52 1034.63L811.268 975.883C818.8 983.415 823.439 993.839 823.439 1005.29Z" fill="#63CD72"/>
<path d="M860.858 926.294L838.262 948.889C852.663 963.29 861.641 983.235 861.641 1005.29C861.641 1027.28 852.723 1047.22 838.262 1061.63C823.861 1076.03 803.917 1085 781.924 1085C759.871 1085 739.987 1076.09 725.526 1061.63L702.93 1084.22C723.176 1104.47 751.074 1116.94 781.924 1116.94C812.774 1116.94 840.672 1104.47 860.918 1084.22C881.163 1063.98 893.636 1036.08 893.636 1005.23C893.576 974.437 881.103 946.539 860.858 926.294Z" fill="#63CD72"/>
<path d="M670.212 1005.29H781.924V893.576L670.212 1005.29Z" fill="#F4B242"/>
<path d="M670.212 893.576V1005.29L781.924 893.576H670.212Z" fill="#9578F7"/>
<path d="M781.864 893.576H893.576V781.864L781.864 893.576Z" fill="#F4B242"/>
<path d="M893.576 558.5H1005.29V446.788" fill="#F4B242"/>
<path d="M670.212 1117H446.788L451.608 1112.18L558.5 1005.29L670.212 1117Z" fill="#F4B242"/>
<path d="M670.212 1005.29H558.5L670.212 1117V1005.29Z" fill="#F4B242"/>
<path d="M670.212 781.864H781.864V670.212L670.212 781.864Z" fill="#F4B242"/>
<path d="M893.576 670.212V558.5L781.864 670.212H893.576Z" fill="#F4B242"/>
<path d="M893.576 670.212H781.864V781.924H893.576V670.212Z" fill="#F4B242"/>
<path d="M670.212 670.212V781.864L781.864 670.212H670.212Z" fill="#9578F7"/>
<path d="M670.212 1117H446.788L451.608 1112.18L558.5 1005.29L670.212 1117Z" fill="#010446"/>
<path d="M1117 893.576L1005.29 1005.29V893.576H1117Z" fill="white"/>
<path d="M893.576 446.788H781.864V558.5H893.576V446.788Z" fill="#F4B242"/>
<path d="M837.72 469.263C819.282 469.263 804.338 484.206 804.338 502.644C804.338 521.082 819.282 536.025 837.72 536.025C856.157 536.025 871.101 521.082 871.101 502.644C871.101 484.206 856.157 469.263 837.72 469.263Z" fill="white"/>
<path d="M893.576 335.076L781.864 446.788V335.076H893.576Z" fill="white"/>
<path d="M893.576 335.076L781.864 446.788V335.076H893.576Z" fill="white"/>
<path d="M1117 335.076L1005.29 446.788V335.076H1117Z" fill="white"/>
<path d="M670.212 1117V1005.29H781.924L670.212 1117Z" fill="#9578F7"/>
<path d="M781.924 1005.29L781.864 893.576H893.576L781.924 1005.29Z" fill="white"/>
<path d="M670.212 670.212H781.924V558.5L670.212 670.212Z" fill="#F4B242"/>
<path d="M670.212 558.5V670.212L781.924 558.5H670.212Z" fill="#9578F7"/>
<path d="M781.924 670.212L781.864 558.5H893.576L781.924 670.212Z" fill="white"/>
<path d="M893.575 893.576H1005.29V781.864L893.575 893.576Z" fill="#F4B242"/>
<path d="M1117 781.864V670.212L1005.29 781.864H1117Z" fill="#F4B242"/>
<path d="M1117 781.864H1005.29V893.576H1117V781.864Z" fill="#F4B242"/>
<path d="M1117 670.212L1005.29 781.924L893.575 893.576C1016.98 893.576 1117 793.553 1117 670.212Z" fill="#63CD72"/>
<path d="M893.575 781.864V893.576L1005.29 781.864H893.575Z" fill="#9578F7"/>
<path d="M893.575 558.5V781.864H1005.29L1117 670.212H1005.29V558.5H893.575Z" fill="white"/>
<path d="M446.788 1005.29H558.5V893.576L446.788 1005.29Z" fill="#F4B242"/>
<path d="M670.212 893.576V781.864L558.5 893.576H670.212Z" fill="#F4B242"/>
<path d="M670.212 893.576H558.5V1005.29H670.212V893.576Z" fill="#F4B242"/>
<path d="M670.212 781.864L558.5 893.576L446.788 1005.29C570.189 1005.29 670.212 905.265 670.212 781.864Z" fill="#63CD72"/>
<path d="M446.788 893.576V1005.29L558.5 893.576H446.788Z" fill="#9578F7"/>
<path d="M446.788 670.212V893.576H558.5L670.212 781.864H558.5V670.212H446.788Z" fill="white"/>
<path d="M670.212 1005.29V781.864L446.788 1005.29H670.212Z" fill="#63CD72"/>
<path d="M670.212 781.864L446.788 1005.29C570.189 1005.29 670.212 905.265 670.212 781.864Z" fill="#010446"/>
<path d="M1005.29 670.212H1117V558.5L1005.29 670.212Z" fill="#F4B242"/>
<path d="M1005.29 558.5V670.212L1117 558.5H1005.29Z" fill="#9578F7"/>
<path d="M947.624 584.108C931.355 584.108 918.159 597.304 918.159 613.573C918.159 629.841 931.355 643.037 947.624 643.037C963.892 643.037 977.088 629.841 977.088 613.573C977.088 597.304 963.953 584.108 947.624 584.108Z" fill="#63CD72"/>
<path d="M558.5 781.864H670.212V670.212L558.5 781.864Z" fill="#F4B242"/>
<path d="M558.5 670.212V781.864L670.212 670.212H558.5Z" fill="#9578F7"/>
<path d="M500.836 695.82C484.568 695.82 471.372 709.016 471.372 725.285C471.372 741.553 484.568 754.749 500.836 754.749C517.105 754.749 530.301 741.553 530.301 725.285C530.301 709.016 517.165 695.82 500.836 695.82Z" fill="#63CD72"/>
<path d="M879.898 572.178L893.576 585.855V558.5L879.898 572.178Z" fill="#63CD72"/>
<path d="M844.95 607.125L893.576 655.751V627.793L858.929 593.146L844.95 607.125Z" fill="#63CD72"/>
<path d="M810.003 642.073L893.576 725.706V697.748L823.982 628.094L810.003 642.073Z" fill="#63CD72"/>
<path d="M781.864 670.212L775.055 677.021L879.838 781.864H893.576V767.643L789.034 663.042L781.864 670.212Z" fill="#63CD72"/>
<path d="M740.047 712.028L809.942 781.864H837.901L754.026 698.049L740.047 712.028Z" fill="#63CD72"/>
<path d="M705.099 746.976L740.047 781.864H768.005L719.078 732.997L705.099 746.976Z" fill="#63CD72"/>
<path d="M670.212 781.864H698.11L684.131 767.945L670.212 781.864Z" fill="#63CD72"/>
<path d="M670.212 781.864V893.576H781.864L893.576 781.864H670.212Z" fill="white"/>
<path d="M446.848 670.152H223.424L223.424 893.516H446.848V670.152Z" fill="white"/>
<path d="M0.0476837 446.816H223.411L223.411 223.452L0.0476837 223.452L0.0476837 446.816Z" fill="#63CD72"/>
<path d="M0 223.364L0 335.076C0 396.776 50.0113 446.788 111.712 446.788L111.712 223.364H0Z" fill="#F4B242"/>
<path d="M111.712 223.364L111.712 446.728C173.413 446.728 223.424 396.716 223.424 335.016V223.364H111.712Z" fill="#9578F7"/>
<path d="M0.0477142 223.393L223.412 223.393L223.412 0.02948L0.0477142 0.02948L0.0477142 223.393Z" fill="#9578F7"/>
<path d="M223.424 223.364L223.424 0L0 223.364L223.424 223.364Z" fill="#63CD72"/>
<path d="M223.424 0L0 223.364C123.401 223.364 223.424 123.401 223.424 0Z" fill="white"/>
<path d="M223.351 223.393L446.775 223.393V0.02948L223.351 0.02948L223.351 223.393Z" fill="#F4B242"/>
<path d="M223.424 223.364L446.788 223.364V111.712C446.788 50.0113 396.777 0 335.076 0C273.375 0 223.364 50.0113 223.364 111.712L223.364 223.364H223.424Z" fill="#010446"/>
<path d="M0.0476837 670.178H223.411L223.411 446.814H0.0476837L0.0476837 670.178Z" fill="#63CD72"/>
<path d="M0.0477142 893.601H223.412L223.412 670.176H0.0477142L0.0477142 893.601Z" fill="#F4B242"/>
<path d="M223.424 893.576L223.424 670.152L0 893.576H223.424Z" fill="#63CD72"/>
<path d="M0 781.864L0 670.152H111.712C80.8617 670.152 52.9638 682.624 32.7182 702.87C12.533 723.116 0 751.013 0 781.864Z" fill="white"/>
<path d="M111.712 670.152H223.424V781.864C223.424 720.163 173.413 670.152 111.712 670.152Z" fill="white"/>
<path d="M0 1117L0 893.576H223.424L0 1117Z" fill="#010446"/>
<path d="M223.351 446.816H446.775V223.452L223.351 223.452L223.351 446.816Z" fill="#F4B242"/>
<path d="M223.424 446.788H446.788V223.364C323.447 223.364 223.424 323.386 223.424 446.788Z" fill="white"/>
<path d="M446.788 446.788V223.364L223.424 446.788H446.788Z" fill="#9578F7"/>
<path d="M223.351 670.178H446.775V446.814H223.351L223.351 670.178Z" fill="#63CD72"/>
<path d="M223.424 670.152L446.788 446.788H223.424L223.424 670.152Z" fill="#F4B242"/>
<path d="M223.424 558.5C223.424 620.201 273.435 670.212 335.136 670.212C396.837 670.212 446.848 620.201 446.848 558.5C446.848 496.799 396.837 446.788 335.136 446.788C273.435 446.788 223.424 496.799 223.424 558.5Z" fill="white"/>
<path d="M260.661 558.5C260.661 599.594 293.982 632.914 335.076 632.914C376.169 632.914 409.49 599.594 409.49 558.5C409.49 517.406 376.169 484.086 335.076 484.086C293.982 484.025 260.661 517.346 260.661 558.5Z" fill="#63CD72"/>
<path d="M304.165 558.5C304.165 575.612 318.024 589.471 335.136 589.471C352.248 589.471 366.107 575.612 366.107 558.5C366.107 541.388 352.248 527.529 335.136 527.529C318.024 527.529 304.165 541.388 304.165 558.5Z" fill="#F4B242"/>
<path d="M223.424 893.576L446.788 670.152H223.424L223.424 893.576Z" fill="#010446"/>
<path d="M446.788 670.152L223.424 893.576C346.765 893.576 446.788 793.553 446.788 670.152Z" fill="#63CD72"/>
<path d="M335.076 155.939C359.479 155.939 379.303 136.115 379.303 111.712C379.303 87.3089 359.479 67.4851 335.076 67.4851C310.673 67.4851 290.849 87.3089 290.849 111.712C290.849 136.115 310.673 155.939 335.076 155.939Z" fill="#63CD72"/>
<path d="M223.424 223.364H111.712V246.803H223.424V223.364Z" fill="white"/>
<path d="M223.424 273.496H111.712V296.935H223.424V273.496Z" fill="white"/>
<path d="M111.712 347.066H222.761C223.183 343.15 223.424 339.113 223.424 335.076V323.567H111.712V347.066Z" fill="white"/>
<path d="M111.712 397.138H204.564C209.445 389.847 213.482 382.014 216.555 373.699H111.712V397.138V397.138Z" fill="white"/>
<path d="M111.712 446.788C137.26 446.788 160.759 438.232 179.559 423.831H111.712V446.788Z" fill="white"/>
<path d="M446.788 670.152H223.424L335.076 781.864L446.788 670.152Z" fill="#F4B242"/>
<path d="M0 1117L19.4622 1097.48L0 1078.02L0 1117Z" fill="#63CD72"/>
<path d="M0 1036.02L40.4911 1076.51L60.2546 1056.75L0 996.551L0 1036.02Z" fill="#63CD72"/>
<path d="M0 954.493L81.2232 1035.72L100.987 1016.01L0 915.026L0 954.493Z" fill="#63CD72"/>
<path d="M20.5468 893.576L121.955 994.984L141.719 975.281L60.0136 893.576H20.5468Z" fill="#63CD72"/>
<path d="M102.011 893.576L162.687 954.252L182.451 934.489L141.538 893.576H102.011Z" fill="#63CD72"/>
<path d="M183.536 893.576L203.48 913.52L223.183 893.756L223.002 893.576H183.536Z" fill="#63CD72"/>
<path d="M0 1117L19.4622 1097.48L0 1078.02L0 1117Z" fill="#F4B242"/>
<path d="M0 1036.02L40.4911 1076.51L60.2546 1056.75L0 996.551L0 1036.02Z" fill="#F4B242"/>
<path d="M0 954.493L81.2232 1035.72L100.987 1016.01L0 915.026L0 954.493Z" fill="#F4B242"/>
<path d="M20.5468 893.576L121.955 994.984L141.719 975.281L60.0136 893.576H20.5468Z" fill="#F4B242"/>
<path d="M102.011 893.576L162.687 954.252L182.451 934.489L141.538 893.576H102.011Z" fill="#F4B242"/>
<path d="M183.536 893.576L203.48 913.52L223.183 893.756L223.002 893.576H183.536Z" fill="#F4B242"/>
<path d="M0 558.5C0 620.2 50.0113 670.212 111.712 670.212C173.413 670.212 223.424 620.2 223.424 558.5H0Z" fill="white"/>
<path d="M0 558.5L111.712 446.788L223.424 558.5H0Z" fill="#9578F7"/>
<path d="M111.712 111.712L0 223.424L0 0L111.712 111.712Z" fill="#010446"/>
<path d="M223.424 558.5L111.712 446.788L111.712 558.5H223.424Z" fill="#F4B242"/>
<path d="M0 223.424L0 335.076L111.712 223.364L0 223.424Z" fill="#9578F7"/>
<path d="M0 1116.94L446.788 1117L223.424 893.576L0 1116.94Z" fill="#9578F7"/>
<path d="M446.788 1117L223.424 893.576L223.424 1117H446.788Z" fill="#63CD72"/>
<path d="M558.5 1005.17L446.728 1117L334.895 1005.17H558.5Z" fill="#F4B242"/>
<path d="M446.788 893.576V1005.29H335.076L223.424 893.576H446.788Z" fill="white"/>
<path d="M335.076 893.576V1005.29H446.788L335.076 893.576Z" fill="#63CD72"/>
</svg>
