<svg width="1058" height="1116" viewBox="0 0 1058 1116" fill="none" xmlns="http://www.w3.org/2000/svg">
<path d="M670.152 445.788L670.212 557.5H781.864L893.576 445.788H670.152Z" fill="#010446"/>
<path d="M670.152 445.788L670.212 557.5L781.864 445.788H670.152Z" fill="white"/>
<path d="M893.576 445.788V334.076H670.152L670.212 445.788H893.576Z" fill="#649CD3"/>
<path d="M558.5 110.712L446.788 110.712V222.424H558.5V110.712Z" fill="white"/>
<path d="M670.152 -0.999939L558.44 -0.999939V110.712L670.152 110.712V-0.999939Z" fill="white"/>
<path d="M446.788 445.788L446.788 669.152L670.212 445.788L558.5 334.076L446.788 445.788Z" fill="white"/>
<path d="M558.486 377.54L490.231 445.795L558.486 514.05L626.741 445.795L558.486 377.54Z" fill="#A8D04B"/>
<path d="M558.531 416.189L528.92 445.801L558.531 475.412L588.142 445.801L558.531 416.189Z" fill="white"/>
<path d="M781.864 334.076L670.212 222.424L558.5 334.076L670.212 445.788L781.864 334.076Z" fill="#FFDE64"/>
<path d="M781.864 334.076H893.576V222.364L781.864 334.076Z" fill="#649CD3"/>
<path d="M893.575 -0.999939V222.364L1116.94 -0.999939L893.575 -0.999939Z" fill="#649CD3"/>
<path d="M893.575 222.364L1116.94 -0.999939C993.598 -0.999939 893.575 99.0227 893.575 222.364Z" fill="#FFDE64"/>
<path d="M1117 110.712V334.076H893.575L1005.29 222.424L1117 110.712Z" fill="#FFDE64"/>
<path d="M670.212 222.364H558.5V334.076L670.212 222.364Z" fill="#649CD3"/>
<path d="M446.788 334.076V445.788L558.5 334.076H446.788Z" fill="#649CD3"/>
<path d="M558.5 222.364H446.788V334.076H558.5V222.364Z" fill="#010446"/>
<path d="M558.5 -1L446.788 -1V110.712L558.5 110.712V-1Z" fill="#FFDE64"/>
<path d="M670.212 110.712L558.5 110.712V222.424H670.212V110.712Z" fill="#FFDE64"/>
<path d="M614.365 128.474L576.275 166.564L614.365 204.654L652.455 166.564L614.365 128.474Z" fill="#A8D04B"/>
<path d="M499.199 15.8995L461.11 53.9893L499.199 92.079L537.289 53.9893L499.199 15.8995Z" fill="#A8D04B"/>
<path d="M499.149 200.913C516.201 200.913 530 187.115 530 170.063C530 153.011 516.201 139.212 499.149 139.212C482.097 139.212 468.299 153.011 468.299 170.063C468.299 187.055 482.157 200.913 499.149 200.913Z" fill="#649CD3"/>
<path d="M613.753 82.2718C630.805 82.2718 644.604 68.4735 644.604 51.4215C644.604 34.3694 630.805 20.5711 613.753 20.5711C596.701 20.5711 582.903 34.3694 582.903 51.4215C582.903 68.4133 596.701 82.2718 613.753 82.2718Z" fill="#649CD3"/>
<path d="M670.212 -1V222.364L838.262 54.3137L853.687 38.8885L893.576 -1L670.212 -1Z" fill="#010446"/>
<path d="M670.212 -1V222.364L781.864 110.712L670.212 -1Z" fill="#649CD3"/>
<path d="M446.788 669.152H558.5V557.5L446.788 669.152Z" fill="#649CD3"/>
<path d="M670.212 557.5V445.788L558.5 557.5H670.212Z" fill="#649CD3"/>
<path d="M670.212 557.5H558.5V669.212H670.212V557.5Z" fill="#FFDE64"/>
<path d="M781.864 110.712V334.076L670.212 222.424L781.864 110.712Z" fill="#A8D04B"/>
<path d="M670.212 222.424L653.943 238.693H686.481L670.212 222.424Z" fill="#010446"/>
<path d="M704.738 256.89H635.686L619.417 273.219H721.007L704.738 256.89Z" fill="#010446"/>
<path d="M739.264 291.416H601.16L584.891 307.745H755.532L739.264 291.416Z" fill="#010446"/>
<path d="M781.864 334.076L773.729 325.942H566.634L558.5 334.076L566.634 342.21H773.729L781.864 334.076Z" fill="#010446"/>
<path d="M755.532 360.467H584.891L601.16 376.736H739.203L755.532 360.467Z" fill="#010446"/>
<path d="M721.007 394.993H619.417L635.686 411.262H704.738L721.007 394.993Z" fill="#010446"/>
<path d="M653.943 429.519L670.212 445.788L686.481 429.519H653.943Z" fill="#010446"/>
<path d="M1117 110.712V334.076L1005.29 222.424L1117 110.712Z" fill="#A8D04B"/>
<path d="M1117 110.712L893.575 334.076V222.364L1116.94 -0.999939L1117 110.712Z" fill="white"/>
<path d="M893.576 222.364V-1L781.864 110.712V334.076L893.576 222.364Z" fill="white"/>
<path d="M893.576 557.5H1005.29V445.788L893.576 557.5Z" fill="#A8D04B"/>
<path d="M1116.94 445.788V334.076L1005.29 445.788H1116.94Z" fill="#649CD3"/>
<path d="M1117 445.788H1005.29V557.5H1117V445.788Z" fill="white"/>
<path d="M1061.14 468.263C1042.71 468.263 1027.76 483.206 1027.76 501.644C1027.76 520.082 1042.71 535.025 1061.14 535.025C1079.58 535.025 1094.52 520.082 1094.52 501.644C1094.52 483.206 1079.58 468.263 1061.14 468.263Z" fill="#A8D04B"/>
<path d="M893.576 445.788V557.5L1005.29 445.788H893.576Z" fill="#FFDE64"/>
<path d="M1005.29 334.076H893.575V445.788H1005.29V334.076Z" fill="#FFDE64"/>
<path d="M893.575 1116H1005.29V1004.29L893.575 1116Z" fill="#A8D04B"/>
<path d="M1117 1004.29V892.576L1005.29 1004.29H1117Z" fill="#649CD3"/>
<path d="M1117 1004.29H1005.29V1116H1117V1004.29Z" fill="#649CD3"/>
<path d="M1061.14 1026.76C1042.71 1026.76 1027.76 1041.71 1027.76 1060.14C1027.76 1078.58 1042.71 1093.52 1061.14 1093.52C1079.58 1093.52 1094.52 1078.58 1094.52 1060.14C1094.52 1041.71 1079.58 1026.76 1061.14 1026.76Z" fill="white"/>
<path d="M893.575 1004.29V1116L1005.29 1004.29H893.575Z" fill="#FFDE64"/>
<path d="M1005.29 892.576H893.575V1004.29H1005.29V892.576Z" fill="#FFDE64"/>
<path d="M893.576 892.576L670.212 1116H893.576V892.576Z" fill="#010446"/>
<path d="M838.262 947.89C852.663 962.29 861.641 982.235 861.641 1004.29C861.641 1026.28 852.723 1046.23 838.262 1060.63C823.861 1075.03 803.917 1084 781.924 1084C759.871 1084 739.987 1075.09 725.526 1060.63L670.212 1115.94H893.576V892.576L838.262 947.89Z" fill="#010446"/>
<path d="M823.439 1004.29C823.439 1027.18 804.821 1045.8 781.924 1045.8C770.476 1045.8 760.052 1041.16 752.52 1033.63L811.268 974.884C818.8 982.415 823.439 992.839 823.439 1004.29Z" fill="#A8D04B"/>
<path d="M860.857 925.294L838.262 947.89C852.663 962.29 861.641 982.235 861.641 1004.29C861.641 1026.28 852.723 1046.23 838.262 1060.63C823.861 1075.03 803.917 1084 781.924 1084C759.871 1084 739.987 1075.09 725.526 1060.63L702.93 1083.22C723.176 1103.47 751.074 1115.94 781.924 1115.94C812.774 1115.94 840.672 1103.47 860.918 1083.22C881.163 1062.98 893.636 1035.08 893.636 1004.23C893.576 973.437 881.103 945.54 860.857 925.294Z" fill="#A8D04B"/>
<path d="M670.212 1004.29H781.924V892.576L670.212 1004.29Z" fill="#649CD3"/>
<path d="M670.212 892.576V1004.29L781.924 892.576H670.212Z" fill="#FFDE64"/>
<path d="M781.864 892.576H893.576V780.864L781.864 892.576Z" fill="#649CD3"/>
<path d="M893.576 557.5H1005.29V445.788" fill="#649CD3"/>
<path d="M670.212 1116H446.788L451.608 1111.18L558.5 1004.29L670.212 1116Z" fill="#649CD3"/>
<path d="M670.212 1004.29H558.5L670.212 1116V1004.29Z" fill="#649CD3"/>
<path d="M670.212 780.864H781.864V669.212L670.212 780.864Z" fill="#649CD3"/>
<path d="M893.576 669.212V557.5L781.864 669.212H893.576Z" fill="#649CD3"/>
<path d="M893.576 669.212H781.864V780.924H893.576V669.212Z" fill="#649CD3"/>
<path d="M670.212 669.212V780.864L781.864 669.212H670.212Z" fill="#FFDE64"/>
<path d="M670.212 1116H446.788L451.608 1111.18L558.5 1004.29L670.212 1116Z" fill="#010446"/>
<path d="M1117 892.576L1005.29 1004.29V892.576H1117Z" fill="white"/>
<path d="M893.576 445.788H781.864V557.5H893.576V445.788Z" fill="#649CD3"/>
<path d="M837.72 468.263C819.282 468.263 804.338 483.206 804.338 501.644C804.338 520.082 819.282 535.025 837.72 535.025C856.157 535.025 871.101 520.082 871.101 501.644C871.101 483.206 856.157 468.263 837.72 468.263Z" fill="white"/>
<path d="M893.576 334.076L781.864 445.788V334.076H893.576Z" fill="white"/>
<path d="M893.576 334.076L781.864 445.788V334.076H893.576Z" fill="white"/>
<path d="M1117 334.076L1005.29 445.788V334.076H1117Z" fill="white"/>
<path d="M670.212 1116V1004.29H781.924L670.212 1116Z" fill="#FFDE64"/>
<path d="M781.924 1004.29L781.864 892.576H893.576L781.924 1004.29Z" fill="white"/>
<path d="M670.212 669.212H781.924V557.5L670.212 669.212Z" fill="#649CD3"/>
<path d="M670.212 557.5V669.212L781.924 557.5H670.212Z" fill="#FFDE64"/>
<path d="M781.924 669.212L781.864 557.5H893.576L781.924 669.212Z" fill="white"/>
<path d="M893.575 892.576H1005.29V780.864L893.575 892.576Z" fill="#649CD3"/>
<path d="M1117 780.864V669.212L1005.29 780.864H1117Z" fill="#649CD3"/>
<path d="M1117 780.864H1005.29V892.576H1117V780.864Z" fill="#649CD3"/>
<path d="M1117 669.212L1005.29 780.924L893.575 892.576C1016.98 892.576 1117 792.553 1117 669.212Z" fill="#A8D04B"/>
<path d="M893.575 780.864V892.576L1005.29 780.864H893.575Z" fill="#FFDE64"/>
<path d="M893.575 557.5V780.864H1005.29L1117 669.212H1005.29V557.5H893.575Z" fill="white"/>
<path d="M446.788 1004.29H558.5V892.576L446.788 1004.29Z" fill="#649CD3"/>
<path d="M670.212 892.576V780.864L558.5 892.576H670.212Z" fill="#649CD3"/>
<path d="M670.212 892.576H558.5V1004.29H670.212V892.576Z" fill="#649CD3"/>
<path d="M670.212 780.864L558.5 892.576L446.788 1004.29C570.189 1004.29 670.212 904.265 670.212 780.864Z" fill="#A8D04B"/>
<path d="M446.788 892.576V1004.29L558.5 892.576H446.788Z" fill="#FFDE64"/>
<path d="M446.788 669.212V892.576H558.5L670.212 780.864H558.5V669.212H446.788Z" fill="white"/>
<path d="M670.212 1004.29V780.864L446.788 1004.29H670.212Z" fill="#A8D04B"/>
<path d="M670.212 780.864L446.788 1004.29C570.189 1004.29 670.212 904.265 670.212 780.864Z" fill="#010446"/>
<path d="M1005.29 669.212H1117V557.5L1005.29 669.212Z" fill="#649CD3"/>
<path d="M1005.29 557.5V669.212L1117 557.5H1005.29Z" fill="#FFDE64"/>
<path d="M947.624 583.108C931.355 583.108 918.159 596.304 918.159 612.573C918.159 628.841 931.355 642.037 947.624 642.037C963.892 642.037 977.088 628.841 977.088 612.573C977.088 596.304 963.953 583.108 947.624 583.108Z" fill="#A8D04B"/>
<path d="M558.5 780.864H670.212V669.212L558.5 780.864Z" fill="#649CD3"/>
<path d="M558.5 669.212V780.864L670.212 669.212H558.5Z" fill="#FFDE64"/>
<path d="M500.836 694.82C484.568 694.82 471.372 708.016 471.372 724.285C471.372 740.553 484.568 753.749 500.836 753.749C517.105 753.749 530.301 740.553 530.301 724.285C530.301 708.016 517.165 694.82 500.836 694.82Z" fill="#A8D04B"/>
<path d="M879.898 571.178L893.576 584.855V557.5L879.898 571.178Z" fill="#A8D04B"/>
<path d="M844.95 606.125L893.576 654.751V626.793L858.929 592.146L844.95 606.125Z" fill="#A8D04B"/>
<path d="M810.003 641.073L893.576 724.706V696.748L823.982 627.094L810.003 641.073Z" fill="#A8D04B"/>
<path d="M781.864 669.212L775.055 676.021L879.838 780.864H893.576V766.644L789.034 662.042L781.864 669.212Z" fill="#A8D04B"/>
<path d="M740.047 711.029L809.942 780.864H837.9L754.026 697.05L740.047 711.029Z" fill="#A8D04B"/>
<path d="M705.099 745.976L740.047 780.864H768.005L719.078 731.997L705.099 745.976Z" fill="#A8D04B"/>
<path d="M670.212 780.864H698.11L684.131 766.945L670.212 780.864Z" fill="#A8D04B"/>
<path d="M670.212 780.864V892.576H781.864L893.576 780.864H670.212Z" fill="white"/>
<path d="M446.848 669.152H223.424L223.424 892.516H446.848V669.152Z" fill="white"/>
<path d="M0.0476837 445.816H223.411L223.411 222.452L0.0476837 222.452L0.0476837 445.816Z" fill="#A8D04B"/>
<path d="M0 222.364L0 334.076C0 395.777 50.0113 445.788 111.712 445.788L111.712 222.364H0Z" fill="#649CD3"/>
<path d="M111.712 222.364L111.712 445.728C173.413 445.728 223.424 395.716 223.424 334.016V222.364H111.712Z" fill="#FFDE64"/>
<path d="M0.0476837 222.393L223.411 222.393L223.411 -0.970459L0.0476837 -0.970459L0.0476837 222.393Z" fill="#FFDE64"/>
<path d="M223.424 222.364L223.424 -1L0 222.364L223.424 222.364Z" fill="#A8D04B"/>
<path d="M223.424 -1L0 222.364C123.401 222.364 223.424 122.401 223.424 -1Z" fill="white"/>
<path d="M223.351 222.393L446.775 222.393V-0.970581L223.351 -0.970581L223.351 222.393Z" fill="#649CD3"/>
<path d="M223.424 222.364L446.788 222.364V110.712C446.788 49.0113 396.777 -1 335.076 -1C273.375 -1 223.364 49.0113 223.364 110.712L223.364 222.364H223.424Z" fill="#010446"/>
<path d="M0.0476837 669.178H223.411L223.411 445.814H0.0476837L0.0476837 669.178Z" fill="#A8D04B"/>
<path d="M0.0476837 892.601H223.411L223.411 669.177H0.0476837L0.0476837 892.601Z" fill="#649CD3"/>
<path d="M223.424 892.576L223.424 669.152L0 892.576H223.424Z" fill="#A8D04B"/>
<path d="M0 780.864L0 669.152H111.712C80.8617 669.152 52.9638 681.624 32.7182 701.87C12.533 722.116 0 750.013 0 780.864Z" fill="white"/>
<path d="M111.712 669.152H223.424V780.864C223.424 719.163 173.413 669.152 111.712 669.152Z" fill="white"/>
<path d="M0 1116L0 892.576H223.424L0 1116Z" fill="#010446"/>
<path d="M223.351 445.816H446.775V222.452L223.351 222.452L223.351 445.816Z" fill="#649CD3"/>
<path d="M223.424 445.788H446.788V222.364C323.447 222.364 223.424 322.386 223.424 445.788Z" fill="white"/>
<path d="M446.788 445.788V222.364L223.424 445.788H446.788Z" fill="#FFDE64"/>
<path d="M223.351 669.178H446.775V445.814H223.351L223.351 669.178Z" fill="#A8D04B"/>
<path d="M223.424 669.152L446.788 445.788H223.424L223.424 669.152Z" fill="#649CD3"/>
<path d="M223.424 557.5C223.424 619.201 273.435 669.212 335.136 669.212C396.837 669.212 446.848 619.201 446.848 557.5C446.848 495.799 396.837 445.788 335.136 445.788C273.435 445.788 223.424 495.799 223.424 557.5Z" fill="white"/>
<path d="M260.661 557.5C260.661 598.594 293.982 631.914 335.076 631.914C376.169 631.914 409.49 598.594 409.49 557.5C409.49 516.406 376.169 483.086 335.076 483.086C293.982 483.025 260.661 516.346 260.661 557.5Z" fill="#A8D04B"/>
<path d="M304.165 557.5C304.165 574.612 318.024 588.471 335.136 588.471C352.248 588.471 366.107 574.612 366.107 557.5C366.107 540.388 352.248 526.529 335.136 526.529C318.024 526.529 304.165 540.388 304.165 557.5Z" fill="#649CD3"/>
<path d="M223.424 892.576L446.788 669.152H223.424L223.424 892.576Z" fill="#010446"/>
<path d="M446.788 669.152L223.424 892.576C346.765 892.576 446.788 792.553 446.788 669.152Z" fill="#A8D04B"/>
<path d="M335.076 154.939C359.479 154.939 379.303 135.115 379.303 110.712C379.303 86.3089 359.479 66.4852 335.076 66.4852C310.673 66.4852 290.849 86.3089 290.849 110.712C290.849 135.115 310.673 154.939 335.076 154.939Z" fill="#A8D04B"/>
<path d="M223.424 222.364H111.712V245.803H223.424V222.364Z" fill="white"/>
<path d="M223.424 272.496H111.712V295.935H223.424V272.496Z" fill="white"/>
<path d="M111.712 346.066H222.761C223.183 342.15 223.424 338.113 223.424 334.076V322.567H111.712V346.066Z" fill="white"/>
<path d="M111.712 396.138H204.564C209.445 388.847 213.482 381.014 216.555 372.699H111.712V396.138Z" fill="white"/>
<path d="M111.712 445.788C137.26 445.788 160.759 437.232 179.559 422.831H111.712V445.788Z" fill="white"/>
<path d="M446.788 669.152H223.424L335.076 780.864L446.788 669.152Z" fill="#649CD3"/>
<path d="M0 1116L19.4622 1096.48L0 1077.02L0 1116Z" fill="#A8D04B"/>
<path d="M0 1035.02L40.4911 1075.51L60.2546 1055.75L0 995.551L0 1035.02Z" fill="#A8D04B"/>
<path d="M0 953.493L81.2232 1034.72L100.987 1015.01L0 914.026L0 953.493Z" fill="#A8D04B"/>
<path d="M20.5468 892.576L121.955 993.984L141.719 974.281L60.0135 892.576H20.5468Z" fill="#A8D04B"/>
<path d="M102.011 892.576L162.687 953.252L182.451 933.489L141.538 892.576H102.011Z" fill="#A8D04B"/>
<path d="M183.536 892.576L203.48 912.52L223.183 892.757L223.002 892.576H183.536Z" fill="#A8D04B"/>
<path d="M0 1116L19.4622 1096.48L0 1077.02L0 1116Z" fill="#649CD3"/>
<path d="M0 1035.02L40.4911 1075.51L60.2546 1055.75L0 995.551L0 1035.02Z" fill="#649CD3"/>
<path d="M0 953.493L81.2232 1034.72L100.987 1015.01L0 914.026L0 953.493Z" fill="#649CD3"/>
<path d="M20.5468 892.576L121.955 993.984L141.719 974.281L60.0135 892.576H20.5468Z" fill="#649CD3"/>
<path d="M102.011 892.576L162.687 953.252L182.451 933.489L141.538 892.576H102.011Z" fill="#649CD3"/>
<path d="M183.536 892.576L203.48 912.52L223.183 892.757L223.002 892.576H183.536Z" fill="#649CD3"/>
<path d="M0 557.5C0 619.201 50.0113 669.212 111.712 669.212C173.413 669.212 223.424 619.201 223.424 557.5H0Z" fill="white"/>
<path d="M0 557.5L111.712 445.788L223.424 557.5H0Z" fill="#FFDE64"/>
<path d="M111.712 110.712L0 222.424L0 -1L111.712 110.712Z" fill="#010446"/>
<path d="M223.424 557.5L111.712 445.788L111.712 557.5H223.424Z" fill="#649CD3"/>
<path d="M0 222.424L0 334.076L111.712 222.364L0 222.424Z" fill="#FFDE64"/>
<path d="M0 1115.94L446.788 1116L223.424 892.576L0 1115.94Z" fill="#FFDE64"/>
<path d="M446.788 1116L223.424 892.576L223.424 1116H446.788Z" fill="#A8D04B"/>
<path d="M558.5 1004.17L446.728 1116L334.895 1004.17H558.5Z" fill="#649CD3"/>
<path d="M446.788 892.576V1004.29H335.076L223.424 892.576H446.788Z" fill="white"/>
<path d="M335.076 892.576V1004.29H446.788L335.076 892.576Z" fill="#A8D04B"/>
</svg>
