<svg width="37" height="37" viewBox="0 0 37 37" fill="none" xmlns="http://www.w3.org/2000/svg">
<path d="M3 17.4647V33.7176H4.86341C8.35952 33.8242 16.2036 33.9734 19.611 33.7176C23.8702 33.3979 25.2927 32.212 26.3725 31.4262L26.4015 31.4051C27.6888 30.4684 31.0803 28.0005 32.4419 24.4455C33.4215 21.8876 33.6309 19.4009 33.6132 18.4772V10.5906V3.02368C33.6132 3.02368 32.1934 3.00592 31.4836 3.02368H30.2058C25.7691 2.97039 18.7444 3.02369 16.2036 3.02368C15.4932 3.02368 13.1157 3.60985 11.5717 4.35588C10.0277 5.10192 7.73839 6.80713 5.50229 9.6314C3.71342 11.8908 3.08873 15.795 3 17.4647Z" fill="#010446" stroke="#010446" stroke-width="5"/>
<path d="M13.1899 12.9357C9.89132 14.0943 6.54507 17.2697 5.33252 18.8724C6.49657 21.0803 11.0073 23.9581 14.8874 24.7431C18.7676 25.5281 21.2897 25.2337 25.0729 23.5826C27.484 22.5303 30.0524 20.0827 30.9901 18.8724C30.0524 17.7276 27.401 15.0553 24.2968 13.5245C20.4167 11.611 16.7305 11.6921 13.1899 12.9357Z" fill="white" stroke="#010446" stroke-width="2"/>
<circle cx="18.1613" cy="18.7444" r="4.95658" fill="#010446"/>
</svg>
